<?xml version="1.0" encoding="UTF-8"?>
<svg id="Layer_1" data-name="Layer 1" xmlns="http://www.w3.org/2000/svg" xmlns:xlink="http://www.w3.org/1999/xlink" viewBox="0 0 1920 1172">
  <defs>
    <clipPath id="clippath">
      <rect width="1920" height="1172" style="fill: none; stroke-width: 0px;"/>
    </clipPath>
  </defs>
  <g style="clip-path: url(#clippath);">
    <g id="Index_-_FORSIDE_1" data-name="Index - FORSIDE 1">
      <rect width="1920" height="1172" style="fill: #aecc9f; stroke-width: 0px;"/>
      <g id="Group_15" data-name="Group 15" style="opacity: .31;">
        <g id="Path_2" data-name="Path 2">
          <path d="m751.01,237.37s-49.91-72.76-5.11-97.54c44.79-24.78,65.33,39.3,71.94,71.91s10.14,106.83-2.82,104.61-64-78.98-64-78.98Z" style="fill: #aebe7c; stroke-width: 0px;"/>
        </g>
        <g id="Line_26" data-name="Line 26">
          <rect x="782.62" y="134.02" width="1" height="186.39" transform="translate(-29.19 298.33) rotate(-21.18)" style="fill: #707071; stroke-width: 0px;"/>
        </g>
        <g id="Line_27" data-name="Line 27">
          <rect x="775.07" y="276.55" width="39.13" height="1" transform="translate(512.93 1070.06) rotate(-89.66)" style="fill: #707071; stroke-width: 0px;"/>
        </g>
        <g id="Line_28" data-name="Line 28">
          <rect x="746.95" y="233.47" width="51.22" height="1" transform="translate(428.05 963.98) rotate(-81.59)" style="fill: #707071; stroke-width: 0px;"/>
        </g>
        <g id="Line_29" data-name="Line 29">
          <polygon points="739.35 218.42 738.38 218.15 755.21 157.8 756.17 158.07 739.35 218.42" style="fill: #707071; stroke-width: 0px;"/>
        </g>
        <g id="Line_30" data-name="Line 30">
          <rect x="812.8" y="275.65" width="1" height="20.26" transform="translate(170.13 859.76) rotate(-61.11)" style="fill: #707071; stroke-width: 0px;"/>
        </g>
        <g id="Line_31" data-name="Line 31">
          <rect x="804.56" y="220.47" width="1" height="38.5" transform="translate(297.95 909.36) rotate(-69.45)" style="fill: #707071; stroke-width: 0px;"/>
        </g>
        <g id="Line_32" data-name="Line 32">
          <rect x="789.01" y="161.02" width="1" height="57.27" transform="translate(306.44 842.3) rotate(-67)" style="fill: #707071; stroke-width: 0px;"/>
        </g>
      </g>
      <g id="Group_15-2" data-name="Group 15-2" style="opacity: .39;">
        <g id="Path_2-2" data-name="Path 2-2">
          <path d="m1098.78,68.33s23.63-84.97,71.38-66.61c47.76,18.37,11.9,75.27-8.81,101.28-20.71,26.01-75.26,76.42-81.89,65.08s19.32-99.75,19.32-99.75Z" style="fill: #bad759; stroke-width: 0px;"/>
        </g>
        <g id="Line_26-2" data-name="Line 26-2">
          <rect x="1034.04" y="85.88" width="186.3" height="1" transform="translate(508.21 1032.36) rotate(-61.18)" style="fill: #707071; stroke-width: 0px;"/>
        </g>
        <g id="Line_27-2" data-name="Line 27-2">
          <polygon points="1081.7 140.09 1081.06 139.32 1111.19 114.37 1111.83 115.14 1081.7 140.09" style="fill: #707071; stroke-width: 0px;"/>
        </g>
        <g id="Line_28-2" data-name="Line 28-2">
          <rect x="1089.64" y="82.14" width="51.2" height="1" transform="translate(121.86 596.24) rotate(-31.58)" style="fill: #707071; stroke-width: 0px;"/>
        </g>
        <g id="Line_29-2" data-name="Line 29-2">
          <rect x="1102.78" y="33.31" width="62.62" height="1" transform="translate(87.8 472.66) rotate(-24.46)" style="fill: #707071; stroke-width: 0px;"/>
        </g>
        <g id="Line_30-2" data-name="Line 30-2">
          <rect x="1101.26" y="137" width="1" height="20.25" transform="translate(-7.69 215.31) rotate(-11.12)" style="fill: #707071; stroke-width: 0px;"/>
        </g>
        <g id="Line_31-2" data-name="Line 31-2">
          <rect x="1131.22" y="91.97" width="1" height="38.48" transform="translate(27.6 383.4) rotate(-19.46)" style="fill: #707071; stroke-width: 0px;"/>
        </g>
        <g id="Line_32-2" data-name="Line 32-2">
          <rect x="1159.55" y="38.51" width="1" height="57.24" transform="translate(31.13 342.39) rotate(-17.01)" style="fill: #707071; stroke-width: 0px;"/>
        </g>
      </g>
      <g id="Group_15-3" data-name="Group 15-3" style="opacity: .24;">
        <g id="Path_2-3" data-name="Path 2-3">
          <path d="m1612.17,209.21s-5.49,88.02-56.01,79.96c-50.53-8.06-27.26-71.16-12.39-100.91,14.87-29.74,57.77-90.37,66.61-80.65,8.84,9.72,1.79,101.59,1.79,101.59Z" style="fill: #aebe7c; stroke-width: 0px;"/>
        </g>
        <g id="Line_26-3" data-name="Line 26-3">
          <rect x="1487.48" y="196.95" width="186.3" height="1" transform="translate(934.59 1653.48) rotate(-73.19)" style="fill: #707071; stroke-width: 0px;"/>
        </g>
        <g id="Line_27-3" data-name="Line 27-3">
          <rect x="1582.68" y="150.61" width="39.11" height="1" transform="translate(488.28 1312.62) rotate(-51.58)" style="fill: #707071; stroke-width: 0px;"/>
        </g>
        <g id="Line_28-3" data-name="Line 28-3">
          <rect x="1567.51" y="198.13" width="51.2" height="1" transform="translate(302.04 1152.88) rotate(-43.58)" style="fill: #707071; stroke-width: 0px;"/>
        </g>
        <g id="Line_29-3" data-name="Line 29-3">
          <rect x="1553.47" y="249.81" width="62.63" height="1" transform="translate(160.95 989.83) rotate(-36.42)" style="fill: #707071; stroke-width: 0px;"/>
        </g>
        <g id="Line_30-3" data-name="Line 30-3">
          <rect x="1592.41" y="122.63" width="1" height="20.25" transform="translate(75.58 635.44) rotate(-23.09)" style="fill: #707071; stroke-width: 0px;"/>
        </g>
        <g id="Line_31-3" data-name="Line 31-3">
          <rect x="1570.55" y="154.86" width="1" height="38.48" transform="translate(139.76 844.86) rotate(-31.43)" style="fill: #707071; stroke-width: 0px;"/>
        </g>
        <g id="Line_32-3" data-name="Line 32-3">
          <rect x="1551.98" y="194.47" width="1" height="57.25" transform="translate(86.37 780.31) rotate(-28.99)" style="fill: #707071; stroke-width: 0px;"/>
        </g>
      </g>
      <g id="Group_15-4" data-name="Group 15-4" style="opacity: .24;">
        <g id="Path_2-4" data-name="Path 2-4">
          <path d="m1327.04,140.68s-54.82-69.09-11.88-96.91c42.94-27.82,67.87,34.65,76.73,66.7,8.85,32.05,17.54,105.82,4.46,104.51s-69.31-74.3-69.31-74.3Z" style="fill: #bad759; stroke-width: 0px;"/>
        </g>
        <g id="Line_26-4" data-name="Line 26-4">
          <rect x="1357.85" y="35.17" width="1" height="186.3" transform="translate(74.4 589.91) rotate(-25.17)" style="fill: #707071; stroke-width: 0px;"/>
        </g>
        <g id="Line_27-4" data-name="Line 27-4">
          <rect x="1372.8" y="157.66" width="1" height="39.12" transform="translate(-8.42 86.61) rotate(-3.6)" style="fill: #707071; stroke-width: 0px;"/>
        </g>
        <g id="Line_28-4" data-name="Line 28-4">
          <rect x="1322.7" y="135.29" width="51.2" height="1" transform="translate(1110.09 1469.8) rotate(-85.63)" style="fill: #707071; stroke-width: 0px;"/>
        </g>
        <g id="Line_29-4" data-name="Line 29-4">
          <rect x="1288.58" y="91.31" width="62.63" height="1" transform="translate(964.67 1366.32) rotate(-78.41)" style="fill: #707071; stroke-width: 0px;"/>
        </g>
        <g id="Line_30-4" data-name="Line 30-4">
          <rect x="1392.02" y="174.49" width="1" height="20.25" transform="translate(638.64 1369.87) rotate(-65.09)" style="fill: #707071; stroke-width: 0px;"/>
        </g>
        <g id="Line_31-4" data-name="Line 31-4">
          <rect x="1380.59" y="120.02" width="1" height="38.48" transform="translate(853.8 1423.3) rotate(-73.43)" style="fill: #707071; stroke-width: 0px;"/>
        </g>
        <g id="Line_32-4" data-name="Line 32-4">
          <rect x="1361.61" y="61.8" width="1" height="57.25" transform="translate(832.89 1348.78) rotate(-70.99)" style="fill: #707071; stroke-width: 0px;"/>
        </g>
      </g>
      <g id="Group_15-5" data-name="Group 15-5" style="opacity: .24;">
        <g id="Path_2-5" data-name="Path 2-5">
          <path d="m641.26,364.62s44.67,76.04-1.72,97.62-62.39-43.76-66.7-76.73-2.64-107.23,10.13-104.11,58.29,83.22,58.29,83.22Z" style="fill: #bad759; stroke-width: 0px;"/>
        </g>
        <g id="Line_26-5" data-name="Line 26-5">
          <rect x="608.03" y="279.35" width="1" height="186.3" transform="translate(-82.85 196.25) rotate(-17.17)" style="fill: #707071; stroke-width: 0px;"/>
        </g>
        <g id="Line_27-5" data-name="Line 27-5">
          <rect x="580.97" y="321.5" width="39.12" height="1" transform="translate(233.68 896.23) rotate(-85.63)" style="fill: #707071; stroke-width: 0px;"/>
        </g>
        <g id="Line_28-5" data-name="Line 28-5">
          <rect x="593.93" y="366" width="51.2" height="1" transform="translate(128.48 892.81) rotate(-77.59)" style="fill: #707071; stroke-width: 0px;"/>
        </g>
        <g id="Line_29-5" data-name="Line 29-5">
          <rect x="610.22" y="413.5" width="62.63" height="1" transform="translate(36 879.07) rotate(-70.36)" style="fill: #707071; stroke-width: 0px;"/>
        </g>
        <g id="Line_30-5" data-name="Line 30-5">
          <rect x="582.03" y="301.88" width="1" height="20.25" transform="translate(4.12 631.58) rotate(-57.09)" style="fill: #707071; stroke-width: 0px;"/>
        </g>
        <g id="Line_31-5" data-name="Line 31-5">
          <rect x="587.03" y="339.26" width="1" height="38.48" transform="translate(17.21 743.79) rotate(-65.43)" style="fill: #707071; stroke-width: 0px;"/>
        </g>
        <g id="Line_32-5" data-name="Line 32-5">
          <rect x="599.03" y="380.88" width="1" height="57.25" transform="translate(-37.59 757.64) rotate(-62.99)" style="fill: #707071; stroke-width: 0px;"/>
        </g>
      </g>
      <g id="Group_15-6" data-name="Group 15-6" style="opacity: .25;">
        <g id="Path_2-6" data-name="Path 2-6">
          <path d="m1394.29,505.75s16.17-86.7,65.34-72.54,18.38,73.96,0,101.67-68.35,82.66-75.95,71.93,10.6-101.05,10.6-101.05Z" style="fill: #aebe7c; stroke-width: 0px;"/>
        </g>
        <g id="Line_26-6" data-name="Line 26-6">
          <rect x="1331.01" y="520.77" width="186.3" height="1" transform="translate(371.36 1612.86) rotate(-66.14)" style="fill: #707071; stroke-width: 0px;"/>
        </g>
        <g id="Line_27-6" data-name="Line 27-6">
          <rect x="1377.51" y="564.13" width="39.11" height="1" transform="translate(5.91 1143.67) rotate(-44.6)" style="fill: #707071; stroke-width: 0px;"/>
        </g>
        <g id="Line_28-6" data-name="Line 28-6">
          <rect x="1386.32" y="518.08" width="51.2" height="1" transform="translate(-30.94 943.54) rotate(-36.58)" style="fill: #707071; stroke-width: 0px;"/>
        </g>
        <g id="Line_29-6" data-name="Line 29-6">
          <rect x="1395.17" y="467.8" width="62.63" height="1" transform="translate(-46.33 759.8) rotate(-29.37)" style="fill: #707071; stroke-width: 0px;"/>
        </g>
        <g id="Line_30-6" data-name="Line 30-6">
          <rect x="1403.59" y="573.86" width="1" height="20.25" transform="translate(-106.86 412.15) rotate(-16.09)" style="fill: #707071; stroke-width: 0px;"/>
        </g>
        <g id="Line_31-6" data-name="Line 31-6">
          <rect x="1430.32" y="526.37" width="1" height="38.48" transform="translate(-97.54 640.7) rotate(-24.43)" style="fill: #707071; stroke-width: 0px;"/>
        </g>
        <g id="Line_32-6" data-name="Line 32-6">
          <rect x="1454.73" y="470.63" width="1" height="57.24" transform="translate(-81.08 581.15) rotate(-21.99)" style="fill: #707071; stroke-width: 0px;"/>
        </g>
      </g>
      <g id="Group_15-7" data-name="Group 15-7" style="opacity: .23;">
        <g id="Path_2-7" data-name="Path 2-7">
          <path d="m1316.73,311.39s44.67,76.04-1.72,97.62-62.39-43.76-66.7-76.73-2.64-107.23,10.13-104.11,58.29,83.22,58.29,83.22Z" style="fill: #bad759; stroke-width: 0px;"/>
        </g>
        <g id="Line_26-7" data-name="Line 26-7">
          <rect x="1283.5" y="226.12" width="1" height="186.3" transform="translate(-37.03 393.29) rotate(-17.17)" style="fill: #707071; stroke-width: 0px;"/>
        </g>
        <g id="Line_27-7" data-name="Line 27-7">
          <rect x="1256.44" y="268.28" width="39.12" height="1" transform="translate(910.71 1520.57) rotate(-85.63)" style="fill: #707071; stroke-width: 0px;"/>
        </g>
        <g id="Line_28-7" data-name="Line 28-7">
          <rect x="1269.4" y="312.78" width="51.2" height="1" transform="translate(710.8 1510.72) rotate(-77.59)" style="fill: #707071; stroke-width: 0px;"/>
        </g>
        <g id="Line_29-7" data-name="Line 29-7">
          <rect x="1285.69" y="360.28" width="62.63" height="1" transform="translate(534.58 1479.91) rotate(-70.36)" style="fill: #707071; stroke-width: 0px;"/>
        </g>
        <g id="Line_30-7" data-name="Line 30-7">
          <rect x="1257.5" y="248.65" width="1" height="20.25" transform="translate(357.33 1174.38) rotate(-57.09)" style="fill: #707071; stroke-width: 0px;"/>
        </g>
        <g id="Line_31-7" data-name="Line 31-7">
          <rect x="1262.5" y="286.03" width="1" height="38.48" transform="translate(460.26 1327.02) rotate(-65.43)" style="fill: #707071; stroke-width: 0px;"/>
        </g>
        <g id="Line_32-7" data-name="Line 32-7">
          <rect x="1274.5" y="327.65" width="1" height="57.25" transform="translate(378.5 1330.37) rotate(-62.99)" style="fill: #707071; stroke-width: 0px;"/>
        </g>
      </g>
      <g id="Group_15-8" data-name="Group 15-8" style="opacity: .24;">
        <g id="Path_2-8" data-name="Path 2-8">
          <path d="m872.99,1121.43s-36.64,80.24-80.94,54.62c-44.3-25.62.02-76.22,24.56-98.67,24.53-22.45,86.3-63.71,91.08-51.47,4.78,12.25-34.7,95.51-34.7,95.51Z" style="fill: #aebe7c; stroke-width: 0px;"/>
        </g>
        <g id="Line_26-8" data-name="Line 26-8">
          <rect x="754.59" y="1098.65" width="186.33" height="1" transform="translate(-540.34 1095.65) rotate(-52.21)" style="fill: #707071; stroke-width: 0px;"/>
        </g>
        <g id="Line_27-8" data-name="Line 27-8">
          <rect x="864.96" y="1063.11" width="39.12" height="1" transform="translate(-418.4 598.8) rotate(-30.62)" style="fill: #707071; stroke-width: 0px;"/>
        </g>
        <g id="Line_28-8" data-name="Line 28-8">
          <rect x="833.38" y="1104.21" width="51.2" height="1" transform="translate(-358.71 415.17) rotate(-22.61)" style="fill: #707071; stroke-width: 0px;"/>
        </g>
        <g id="Line_29-8" data-name="Line 29-8">
          <rect x="801.39" y="1149.5" width="62.63" height="1" transform="translate(-275.37 262.27) rotate(-15.39)" style="fill: #707071; stroke-width: 0px;"/>
        </g>
        <g id="Line_30-8" data-name="Line 30-8">
          <rect x="881.88" y="1033" width="1" height="20.25" transform="translate(-37.98 33.35) rotate(-2.12)" style="fill: #707071; stroke-width: 0px;"/>
        </g>
        <g id="Line_31-8" data-name="Line 31-8">
          <rect x="846.66" y="1054.67" width="1" height="38.49" transform="translate(-180.86 171.62) rotate(-10.46)" style="fill: #707071; stroke-width: 0px;"/>
        </g>
        <g id="Line_32-8" data-name="Line 32-8">
          <rect x="811.78" y="1084.39" width="1" height="57.25" transform="translate(-147.21 124.09) rotate(-8.01)" style="fill: #707071; stroke-width: 0px;"/>
        </g>
      </g>
      <g id="Group_15-9" data-name="Group 15-9" style="opacity: .26;">
        <g id="Path_2-9" data-name="Path 2-9">
          <path d="m585.76,826.2s28.08-83.61,74.8-62.74c46.72,20.86,7.91,75.79-14.15,100.68-22.06,24.88-79.19,72.34-85.22,60.66-6.03-11.68,24.57-98.59,24.57-98.59Z" style="fill: #aebe7c; stroke-width: 0px;"/>
        </g>
        <g id="Line_26-9" data-name="Line 26-9">
          <rect x="520.02" y="845.22" width="186.3" height="1" transform="translate(-428.75 920.7) rotate(-58.17)" style="fill: #707071; stroke-width: 0px;"/>
        </g>
        <g id="Line_27-9" data-name="Line 27-9">
          <rect x="560.75" y="884.39" width="39.12" height="1" transform="translate(-413.03 520.11) rotate(-36.58)" style="fill: #707071; stroke-width: 0px;"/>
        </g>
        <g id="Line_28-9" data-name="Line 28-9">
          <rect x="575.83" y="840.86" width="51.2" height="1" transform="translate(-329.1 390.01) rotate(-28.57)" style="fill: #707071; stroke-width: 0px;"/>
        </g>
        <g id="Line_29-9" data-name="Line 29-9">
          <rect x="591.53" y="793.09" width="62.63" height="1" transform="translate(-246.68 282.08) rotate(-21.41)" style="fill: #707071; stroke-width: 0px;"/>
        </g>
        <g id="Line_30-9" data-name="Line 30-9">
          <rect x="584.07" y="894.91" width="1" height="20.25" transform="translate(-121.63 91.34) rotate(-8.1)" style="fill: #707071; stroke-width: 0px;"/>
        </g>
        <g id="Line_31-9" data-name="Line 31-9">
          <rect x="615.89" y="851.52" width="1" height="38.48" transform="translate(-221.15 209.94) rotate(-16.43)" style="fill: #707071; stroke-width: 0px;"/>
        </g>
        <g id="Line_32-9" data-name="Line 32-9">
          <rect x="646.5" y="799.62" width="1" height="57.25" transform="translate(-181.01 180.95) rotate(-13.99)" style="fill: #707071; stroke-width: 0px;"/>
        </g>
      </g>
      <g id="Group_18" data-name="Group 18" style="opacity: .31;">
        <g id="Path_2-10" data-name="Path 2-10">
          <path d="m1442.64,943.92s-30.98,82.57-76.95,60.09c-45.96-22.48-5.26-76.02,17.65-100.12,22.91-24.1,81.67-69.53,87.28-57.65s-27.99,97.68-27.99,97.68Z" style="fill: #aebe7c; stroke-width: 0px;"/>
        </g>
        <g id="Line_26-10" data-name="Line 26-10">
          <rect x="1322.77" y="922.94" width="186.3" height="1" transform="translate(-139.64 1585.12) rotate(-56.15)" style="fill: #707071; stroke-width: 0px;"/>
        </g>
        <g id="Line_27-10" data-name="Line 27-10">
          <rect x="1430.58" y="884.95" width="39.12" height="1" transform="translate(-246.23 981.61) rotate(-34.65)" style="fill: #707071; stroke-width: 0px;"/>
        </g>
        <g id="Line_28-10" data-name="Line 28-10">
          <rect x="1401.91" y="927.72" width="51.2" height="1" transform="translate(-264.4 736.4) rotate(-26.57)" style="fill: #707071; stroke-width: 0px;"/>
        </g>
        <g id="Line_29-10" data-name="Line 29-10">
          <rect x="1373.13" y="974.71" width="62.63" height="1" transform="translate(-244.11 521.59) rotate(-19.39)" style="fill: #707071; stroke-width: 0px;"/>
        </g>
        <g id="Line_30-10" data-name="Line 30-10">
          <rect x="1446.08" y="855.04" width="1" height="20.25" transform="translate(-83.67 158.45) rotate(-6.09)" style="fill: #707071; stroke-width: 0px;"/>
        </g>
        <g id="Line_31-10" data-name="Line 31-10">
          <rect x="1413.09" y="879.07" width="1" height="38.48" transform="translate(-179.29 380.68) rotate(-14.43)" style="fill: #707071; stroke-width: 0px;"/>
        </g>
        <g id="Line_32-10" data-name="Line 32-10">
          <rect x="1381" y="911.11" width="1" height="57.25" transform="translate(-165.05 307.43) rotate(-11.99)" style="fill: #707071; stroke-width: 0px;"/>
        </g>
      </g>
      <g id="Group_21" data-name="Group 21" style="opacity: .31;">
        <g id="Path_2-11" data-name="Path 2-11">
          <path d="m1563.29,1017.92s16.17-86.7,65.34-72.54,18.38,73.96,0,101.67-68.35,82.66-75.95,71.93,10.6-101.05,10.6-101.05Z" style="fill: #bad759; stroke-width: 0px;"/>
        </g>
        <g id="Line_26-11" data-name="Line 26-11">
          <rect x="1500.01" y="1032.94" width="186.3" height="1" transform="translate(3.6 2072.41) rotate(-66.14)" style="fill: #707071; stroke-width: 0px;"/>
        </g>
        <g id="Line_27-11" data-name="Line 27-11">
          <rect x="1546.51" y="1076.3" width="39.11" height="1" transform="translate(-305.06 1409.87) rotate(-44.6)" style="fill: #707071; stroke-width: 0px;"/>
        </g>
        <g id="Line_28-11" data-name="Line 28-11">
          <rect x="1555.32" y="1030.25" width="51.2" height="1" transform="translate(-302.87 1145.13) rotate(-36.58)" style="fill: #707071; stroke-width: 0px;"/>
        </g>
        <g id="Line_29-11" data-name="Line 29-11">
          <rect x="1564.17" y="979.97" width="62.63" height="1" transform="translate(-275.8 908.52) rotate(-29.37)" style="fill: #707071; stroke-width: 0px;"/>
        </g>
        <g id="Line_30-11" data-name="Line 30-11">
          <rect x="1572.59" y="1086.03" width="1" height="20.25" transform="translate(-242.22 479.05) rotate(-16.09)" style="fill: #707071; stroke-width: 0px;"/>
        </g>
        <g id="Line_31-11" data-name="Line 31-11">
          <rect x="1599.32" y="1038.54" width="1" height="38.48" transform="translate(-294.26 756.45) rotate(-24.43)" style="fill: #707071; stroke-width: 0px;"/>
        </g>
        <g id="Line_32-11" data-name="Line 32-11">
          <rect x="1623.73" y="982.8" width="1" height="57.24" transform="translate(-260.54 681.68) rotate(-21.99)" style="fill: #707071; stroke-width: 0px;"/>
        </g>
      </g>
      <g id="Group_15-10" data-name="Group 15-10" style="opacity: .22;">
        <g id="Path_2-12" data-name="Path 2-12">
          <path d="m522.44,1017s44.67,76.04-1.72,97.62-62.39-43.76-66.7-76.73-2.64-107.23,10.13-104.11,58.29,83.22,58.29,83.22Z" style="fill: #bad759; stroke-width: 0px;"/>
        </g>
        <g id="Line_26-12" data-name="Line 26-12">
          <rect x="489.22" y="931.73" width="1" height="186.3" transform="translate(-280.74 190.25) rotate(-17.17)" style="fill: #707071; stroke-width: 0px;"/>
        </g>
        <g id="Line_27-12" data-name="Line 27-12">
          <rect x="462.16" y="973.88" width="39.12" height="1" transform="translate(-526.56 1380.4) rotate(-85.63)" style="fill: #707071; stroke-width: 0px;"/>
        </g>
        <g id="Line_28-12" data-name="Line 28-12">
          <rect x="475.12" y="1018.38" width="51.2" height="1" transform="translate(-601.95 1288.98) rotate(-77.59)" style="fill: #707071; stroke-width: 0px;"/>
        </g>
        <g id="Line_29-12" data-name="Line 29-12">
          <rect x="491.4" y="1065.88" width="62.63" height="1" transform="translate(-657.31 1200.29) rotate(-70.36)" style="fill: #707071; stroke-width: 0px;"/>
        </g>
        <g id="Line_30-12" data-name="Line 30-12">
          <rect x="463.22" y="954.25" width="1" height="20.25" transform="translate(-597.86 829.8) rotate(-57.09)" style="fill: #707071; stroke-width: 0px;"/>
        </g>
        <g id="Line_31-12" data-name="Line 31-12">
          <rect x="468.21" y="991.64" width="1" height="38.48" transform="translate(-645.53 1016.88) rotate(-65.43)" style="fill: #707071; stroke-width: 0px;"/>
        </g>
        <g id="Line_32-12" data-name="Line 32-12">
          <rect x="480.22" y="1033.26" width="1" height="57.25" transform="translate(-683.65 1007.86) rotate(-62.99)" style="fill: #707071; stroke-width: 0px;"/>
        </g>
      </g>
      <g id="Group_15-11" data-name="Group 15-11" style="opacity: .2;">
        <g id="Path_2-13" data-name="Path 2-13">
          <path d="m144.76,234.14s-10.08,87.65-60.14,76.96c-50.06-10.69-23.51-72.52-7.1-101.46,16.41-28.94,62.44-87.26,70.77-77.09,8.33,10.18-3.52,101.59-3.52,101.59Z" style="fill: #bad759; stroke-width: 0px;"/>
        </g>
        <g id="Line_26-13" data-name="Line 26-13">
          <rect x="20.68" y="220.23" width="186.38" height="1" transform="translate(-132.42 252.88) rotate(-70.15)" style="fill: #707071; stroke-width: 0px;"/>
        </g>
        <g id="Line_27-13" data-name="Line 27-13">
          <rect x="118.31" y="175.07" width="39.13" height="1" transform="translate(-84.99 162.73) rotate(-48.56)" style="fill: #707071; stroke-width: 0px;"/>
        </g>
        <g id="Line_28-13" data-name="Line 28-13">
          <rect x="100.66" y="222.06" width="51.22" height="1" transform="translate(-114.39 135.6) rotate(-40.56)" style="fill: #707071; stroke-width: 0px;"/>
        </g>
        <g id="Line_29-13" data-name="Line 29-13">
          <rect x="83.92" y="273.26" width="62.65" height="1" transform="translate(-131.61 108.57) rotate(-33.38)" style="fill: #707071; stroke-width: 0px;"/>
        </g>
        <g id="Line_30-13" data-name="Line 30-13">
          <rect x="129.01" y="146.61" width="1" height="20.26" transform="translate(-45.98 54.05) rotate(-20.1)" style="fill: #707071; stroke-width: 0px;"/>
        </g>
        <g id="Line_31-13" data-name="Line 31-13">
          <rect x="105.01" y="177.66" width="1" height="38.5" transform="translate(-81.03 74) rotate(-28.44)" style="fill: #707071; stroke-width: 0px;"/>
        </g>
        <g id="Line_32-13" data-name="Line 32-13">
          <rect x="83.9" y="216.24" width="1" height="57.27" transform="translate(-98.78 61.75) rotate(-25.99)" style="fill: #707071; stroke-width: 0px;"/>
        </g>
      </g>
      <g id="Group_15-12" data-name="Group 15-12" style="opacity: .26;">
        <g id="Path_2-14" data-name="Path 2-14">
          <path d="m281.73,450.62s44.67,76.04-1.72,97.62-62.39-43.76-66.7-76.73-2.64-107.23,10.13-104.11,58.29,83.22,58.29,83.22Z" style="fill: #aebe7c; stroke-width: 0px;"/>
        </g>
        <g id="Line_26-14" data-name="Line 26-14">
          <rect x="248.5" y="365.35" width="1" height="186.3" transform="translate(-124.26 93.94) rotate(-17.17)" style="fill: #707071; stroke-width: 0px;"/>
        </g>
        <g id="Line_27-14" data-name="Line 27-14">
          <rect x="221.44" y="407.5" width="39.12" height="1" transform="translate(-184.19 617.19) rotate(-85.63)" style="fill: #707071; stroke-width: 0px;"/>
        </g>
        <g id="Line_28-14" data-name="Line 28-14">
          <rect x="234.4" y="452" width="51.2" height="1" transform="translate(-237.8 609.2) rotate(-77.59)" style="fill: #707071; stroke-width: 0px;"/>
        </g>
        <g id="Line_29-14" data-name="Line 29-14">
          <rect x="250.69" y="499.5" width="62.63" height="1" transform="translate(-283.69 597.55) rotate(-70.36)" style="fill: #707071; stroke-width: 0px;"/>
        </g>
        <g id="Line_30-14" data-name="Line 30-14">
          <rect x="222.5" y="387.88" width="1" height="20.25" transform="translate(-232.29 369.01) rotate(-57.09)" style="fill: #707071; stroke-width: 0px;"/>
        </g>
        <g id="Line_31-14" data-name="Line 31-14">
          <rect x="227.5" y="425.26" width="1" height="38.48" transform="translate(-271.05 467.06) rotate(-65.43)" style="fill: #707071; stroke-width: 0px;"/>
        </g>
        <g id="Line_32-14" data-name="Line 32-14">
          <rect x="239.5" y="466.88" width="1" height="57.25" transform="translate(-310.45 484.27) rotate(-62.99)" style="fill: #707071; stroke-width: 0px;"/>
        </g>
      </g>
      <g id="Group_15-13" data-name="Group 15-13" style="opacity: .19;">
        <g id="Path_2-15" data-name="Path 2-15">
          <path d="m370.59,296.48s-12.93-87.24,38.16-89.86c51.1-2.62,41.46,63.94,33.1,96.13-8.36,32.18-37.72,100.41-48.39,92.74-10.67-7.67-22.87-99-22.87-99Z" style="fill: #bad759; stroke-width: 0px;"/>
        </g>
        <g id="Line_26-15" data-name="Line 26-15">
          <rect x="310.74" y="300.93" width="186.3" height="1" transform="translate(69.59 678.56) rotate(-85.18)" style="fill: #707071; stroke-width: 0px;"/>
        </g>
        <g id="Line_27-15" data-name="Line 27-15">
          <rect x="372.83" y="350.75" width="39.12" height="1" transform="translate(-96.75 546.41) rotate(-63.58)" style="fill: #707071; stroke-width: 0px;"/>
        </g>
        <g id="Line_28-15" data-name="Line 28-15">
          <rect x="365.84" y="302.37" width="51.2" height="1" transform="translate(-79.62 454.7) rotate(-55.6)" style="fill: #707071; stroke-width: 0px;"/>
        </g>
        <g id="Line_29-15" data-name="Line 29-15">
          <rect x="357.52" y="250.09" width="62.63" height="1" transform="translate(-56.7 375.02) rotate(-48.4)" style="fill: #707071; stroke-width: 0px;"/>
        </g>
        <g id="Line_30-15" data-name="Line 30-15">
          <rect x="404.83" y="357.14" width="1" height="20.25" transform="translate(-137.46 299.81) rotate(-35.1)" style="fill: #707071; stroke-width: 0px;"/>
        </g>
        <g id="Line_31-15" data-name="Line 31-15">
          <rect x="417.61" y="303.03" width="1" height="38.48" transform="translate(-107.08 375.7) rotate(-43.43)" style="fill: #707071; stroke-width: 0px;"/>
        </g>
        <g id="Line_32-15" data-name="Line 32-15">
          <rect x="425.59" y="241.87" width="1" height="57.24" transform="translate(-72.96 345.78) rotate(-40.99)" style="fill: #707071; stroke-width: 0px;"/>
        </g>
      </g>
      <g id="Group_15-14" data-name="Group 15-14" style="opacity: .21;">
        <g id="Path_2-16" data-name="Path 2-16">
          <path d="m481.99,718.36s-11.64,87.44-61.49,75.86c-49.85-11.58-22.21-72.91-5.29-101.55,16.92-28.64,63.97-86.12,72.11-75.8s-5.33,101.49-5.33,101.49Z" style="fill: #bad759; stroke-width: 0px;"/>
        </g>
        <g id="Line_26-16" data-name="Line 26-16">
          <rect x="358.17" y="703.91" width="186.34" height="1" transform="translate(-367.44 876.13) rotate(-69.2)" style="fill: #707071; stroke-width: 0px;"/>
        </g>
        <g id="Line_27-16" data-name="Line 27-16">
          <rect x="456.59" y="659.19" width="39.12" height="1" transform="translate(-332.09 566.66) rotate(-47.61)" style="fill: #707071; stroke-width: 0px;"/>
        </g>
        <g id="Line_28-16" data-name="Line 28-16">
          <rect x="438.11" y="705.96" width="51.21" height="1" transform="translate(-343.61 456.76) rotate(-39.53)" style="fill: #707071; stroke-width: 0px;"/>
        </g>
        <g id="Line_29-16" data-name="Line 29-16">
          <rect x="420.47" y="756.94" width="62.64" height="1" transform="translate(-335.42 359.79) rotate(-32.39)" style="fill: #707071; stroke-width: 0px;"/>
        </g>
        <g id="Line_30-16" data-name="Line 30-16">
          <rect x="467.62" y="630.59" width="1" height="20.25" transform="translate(-183.72 188.21) rotate(-19.08)" style="fill: #707071; stroke-width: 0px;"/>
        </g>
        <g id="Line_31-16" data-name="Line 31-16">
          <rect x="442.92" y="661.19" width="1" height="38.49" transform="translate(-263.51 280.6) rotate(-27.42)" style="fill: #707071; stroke-width: 0px;"/>
        </g>
        <g id="Line_32-16" data-name="Line 32-16">
          <rect x="420.96" y="699.39" width="1" height="57.26" transform="translate(-267.95 245.98) rotate(-24.97)" style="fill: #707071; stroke-width: 0px;"/>
        </g>
      </g>
      <g id="Group_15-15" data-name="Group 15-15" style="opacity: .25;">
        <g id="Path_2-17" data-name="Path 2-17">
          <path d="m56.68,613.1s-44.87,75.97-86.25,45.84c-41.38-30.13,8.03-75.81,34.79-95.57,26.76-19.76,92.54-54.32,96.01-41.63,3.47,12.68-44.55,91.37-44.55,91.37Z" style="fill: #bad759; stroke-width: 0px;"/>
        </g>
        <g id="Line_26-17" data-name="Line 26-17">
          <rect x="-59.28" y="587.79" width="186.38" height="1" transform="translate(-414.06 205.47) rotate(-46.19)" style="fill: #707071; stroke-width: 0px;"/>
        </g>
        <g id="Line_27-17" data-name="Line 27-17">
          <rect x="54.65" y="556.29" width="39.13" height="1" transform="translate(-224.75 81.24) rotate(-24.56)" style="fill: #707071; stroke-width: 0px;"/>
        </g>
        <g id="Line_28-17" data-name="Line 28-17">
          <rect x="18.88" y="594.5" width="51.22" height="1" transform="translate(-167.74 37.36) rotate(-16.56)" style="fill: #707071; stroke-width: 0px;"/>
        </g>
        <g id="Line_29-17" data-name="Line 29-17">
          <rect x="-17.73" y="636.79" width="62.65" height="1" transform="translate(-104.38 10.87) rotate(-9.44)" style="fill: #707071; stroke-width: 0px;"/>
        </g>
        <g id="Line_30-17" data-name="Line 30-17">
          <rect x="64.11" y="535.69" width="20.26" height="1" transform="translate(-465.78 573.62) rotate(-86.08)" style="fill: #707071; stroke-width: 0px;"/>
        </g>
        <g id="Line_31-17" data-name="Line 31-17">
          <rect x="35.47" y="543.87" width="1" height="38.5" transform="translate(-43.41 4.46) rotate(-4.43)" style="fill: #707071; stroke-width: 0px;"/>
        </g>
      </g>
      <g id="Group_15-16" data-name="Group 15-16" style="opacity: .24;">
        <g id="Path_2-18" data-name="Path 2-18">
          <path d="m173.59,785.84s-52.44-70.97-8.54-97.31c43.9-26.34,66.67,36.99,74.42,69.34,7.75,32.35,13.89,106.41.86,104.65s-66.74-76.69-66.74-76.69Z" style="fill: #bad759; stroke-width: 0px;"/>
        </g>
        <g id="Line_26-18" data-name="Line 26-18">
          <rect x="204.82" y="681.36" width="1" height="186.4" transform="translate(-288.47 143.47) rotate(-23.19)" style="fill: #707071; stroke-width: 0px;"/>
        </g>
        <g id="Line_27-18" data-name="Line 27-18">
          <rect x="218.09" y="804.4" width="1" height="39.14" transform="translate(-23.29 6.53) rotate(-1.63)" style="fill: #707071; stroke-width: 0px;"/>
        </g>
        <g id="Line_28-18" data-name="Line 28-18">
          <rect x="169.4" y="781.18" width="51.22" height="1" transform="translate(-603.52 888.49) rotate(-83.61)" style="fill: #707071; stroke-width: 0px;"/>
        </g>
        <g id="Line_29-18" data-name="Line 29-18">
          <rect x="136.8" y="736.23" width="62.66" height="1" transform="translate(-587.49 727.6) rotate(-76.45)" style="fill: #707071; stroke-width: 0px;"/>
        </g>
        <g id="Line_30-18" data-name="Line 30-18">
          <rect x="237.05" y="821.89" width="1" height="20.26" transform="translate(-611.98 667.71) rotate(-63.12)" style="fill: #707071; stroke-width: 0px;"/>
        </g>
        <g id="Line_31-18" data-name="Line 31-18">
          <rect x="227.19" y="767.03" width="1" height="38.5" transform="translate(-590.18 752.11) rotate(-71.46)" style="fill: #707071; stroke-width: 0px;"/>
        </g>
        <g id="Line_32-18" data-name="Line 32-18">
          <rect x="209.89" y="708.16" width="1" height="57.28" transform="translate(-552.88 669.33) rotate(-69.01)" style="fill: #707071; stroke-width: 0px;"/>
        </g>
      </g>
      <g id="Group_15-17" data-name="Group 15-17" style="opacity: .22;">
        <g id="Path_2-19" data-name="Path 2-19">
          <path d="m117.73,995.14s44.67,76.04-1.72,97.62-62.39-43.76-66.7-76.73-2.64-107.23,10.13-104.11,58.29,83.22,58.29,83.22Z" style="fill: #aebe7c; stroke-width: 0px;"/>
        </g>
        <g id="Line_26-19" data-name="Line 26-19">
          <rect x="84.5" y="909.87" width="1" height="186.3" transform="translate(-292.32 69.8) rotate(-17.17)" style="fill: #707071; stroke-width: 0px;"/>
        </g>
        <g id="Line_27-19" data-name="Line 27-19">
          <rect x="57.44" y="952.02" width="39.12" height="1" transform="translate(-878.62 956.67) rotate(-85.63)" style="fill: #707071; stroke-width: 0px;"/>
        </g>
        <g id="Line_28-19" data-name="Line 28-19">
          <rect x="70.4" y="996.52" width="51.2" height="1" transform="translate(-898.36 876.56) rotate(-77.59)" style="fill: #707071; stroke-width: 0px;"/>
        </g>
        <g id="Line_29-19" data-name="Line 29-19">
          <rect x="86.69" y="1044.02" width="62.63" height="1" transform="translate(-905.42 804.6) rotate(-70.36)" style="fill: #707071; stroke-width: 0px;"/>
        </g>
        <g id="Line_30-19" data-name="Line 30-19">
          <rect x="58.5" y="932.39" width="1" height="20.25" transform="translate(-764.36 480.03) rotate(-57.09)" style="fill: #707071; stroke-width: 0px;"/>
        </g>
        <g id="Line_31-19" data-name="Line 31-19">
          <rect x="63.5" y="969.78" width="1" height="38.48" transform="translate(-862.09 636.03) rotate(-65.43)" style="fill: #707071; stroke-width: 0px;"/>
        </g>
        <g id="Line_32-19" data-name="Line 32-19">
          <rect x="75.5" y="1011.4" width="1" height="57.25" transform="translate(-885.08 635.36) rotate(-62.99)" style="fill: #707071; stroke-width: 0px;"/>
        </g>
      </g>
      <g id="Group_15-18" data-name="Group 15-18" style="opacity: .16;">
        <g id="Path_2-20" data-name="Path 2-20">
          <path d="m219.36,1157.84s16.17-86.7,65.34-72.54,18.38,73.96,0,101.67-68.35,82.66-75.95,71.93,10.6-101.05,10.6-101.05Z" style="fill: #bad759; stroke-width: 0px;"/>
        </g>
        <g id="Line_26-20" data-name="Line 26-20">
          <rect x="156.08" y="1172.86" width="186.3" height="1" transform="translate(-924.66 926.66) rotate(-66.14)" style="fill: #707071; stroke-width: 0px;"/>
        </g>
        <g id="Line_28-20" data-name="Line 28-20">
          <rect x="211.4" y="1170.17" width="51.2" height="1" transform="translate(-650.96 371.81) rotate(-36.58)" style="fill: #707071; stroke-width: 0px;"/>
        </g>
        <g id="Line_29-20" data-name="Line 29-20">
          <rect x="220.24" y="1119.89" width="62.63" height="1" transform="translate(-517.16 267.38) rotate(-29.37)" style="fill: #707071; stroke-width: 0px;"/>
        </g>
        <g id="Line_32-20" data-name="Line 32-20">
          <rect x="279.8" y="1122.72" width="1" height="57.25" transform="translate(-410.67 188.68) rotate(-21.99)" style="fill: #707071; stroke-width: 0px;"/>
        </g>
      </g>
      <g id="Group_15-19" data-name="Group 15-19" style="opacity: .15;">
        <g id="Path_2-21" data-name="Path 2-21">
          <path d="m1781.34,252.83s43.52-76.71,85.4-47.32c41.88,29.39-6.7,75.91-33.1,96.13-26.4,20.22-91.54,55.9-95.23,43.29-3.69-12.62,42.93-92.1,42.93-92.1Z" style="fill: #bad759; stroke-width: 0px;"/>
        </g>
        <g id="Line_26-21" data-name="Line 26-21">
          <rect x="1711.38" y="276.73" width="186.3" height="1" transform="translate(373.83 1411.38) rotate(-47.14)" style="fill: #707071; stroke-width: 0px;"/>
        </g>
        <g id="Line_27-21" data-name="Line 27-21">
          <rect x="1745.24" y="308.91" width="39.12" height="1" transform="translate(39.26 791.84) rotate(-25.56)" style="fill: #707071; stroke-width: 0px;"/>
        </g>
        <g id="Line_28-21" data-name="Line 28-21">
          <rect x="1768.24" y="270.2" width="51.2" height="1" transform="translate(2.22 555.73) rotate(-17.62)" style="fill: #707071; stroke-width: 0px;"/>
        </g>
        <g id="Line_29-21" data-name="Line 29-21">
          <polygon points="1793.26 234.05 1793.08 233.06 1854.68 221.75 1854.86 222.73 1793.26 234.05" style="fill: #707071; stroke-width: 0px;"/>
        </g>
        <g id="Line_30-21" data-name="Line 30-21">
          <rect x="1755.01" y="329.5" width="20.25" height="1" transform="translate(1345.87 2076.08) rotate(-87.09)" style="fill: #707071; stroke-width: 0px;"/>
        </g>
        <g id="Line_31-21" data-name="Line 31-21">
          <rect x="1802.41" y="283.17" width="1" height="38.48" transform="translate(-20.53 172.05) rotate(-5.43)" style="fill: #707071; stroke-width: 0px;"/>
        </g>
        <g id="Line_32-21" data-name="Line 32-21">
          <rect x="1840.57" y="237.9" width="1" height="57.25" transform="translate(-11.39 96.28) rotate(-2.99)" style="fill: #707071; stroke-width: 0px;"/>
        </g>
      </g>
      <g id="Group_15-20" data-name="Group 15-20" style="opacity: .24;">
        <g id="Path_2-22" data-name="Path 2-22">
          <path d="m1665.3,436.82s3.78,88.1-47.3,85.39-34.57-67.9-22.91-99.03c11.66-31.13,47.96-95.92,57.77-87.18,9.81,8.74,12.44,100.83,12.44,100.83Z" style="fill: #bad759; stroke-width: 0px;"/>
        </g>
        <g id="Line_26-22" data-name="Line 26-22">
          <rect x="1539.57" y="427.94" width="186.27" height="1" transform="translate(905.78 1951.88) rotate(-79.19)" style="fill: #707071; stroke-width: 0px;"/>
        </g>
        <g id="Line_27-22" data-name="Line 27-22">
          <rect x="1629.77" y="379.59" width="39.11" height="1" transform="translate(444.96 1569.31) rotate(-57.61)" style="fill: #707071; stroke-width: 0px;"/>
        </g>
        <g id="Line_28-22" data-name="Line 28-22">
          <rect x="1619.64" y="427.8" width="51.19" height="1" transform="translate(252.64 1403.44) rotate(-49.59)" style="fill: #707071; stroke-width: 0px;"/>
        </g>
        <g id="Line_29-22" data-name="Line 29-22">
          <rect x="1611.08" y="480.06" width="62.61" height="1" transform="translate(105.34 1232.79) rotate(-42.39)" style="fill: #707071; stroke-width: 0px;"/>
        </g>
        <g id="Line_30-22" data-name="Line 30-22">
          <rect x="1637.62" y="352.7" width="1" height="20.25" transform="translate(30.5 843.05) rotate(-29.12)" style="fill: #707071; stroke-width: 0px;"/>
        </g>
        <g id="Line_31-22" data-name="Line 31-22">
          <rect x="1620.23" y="386.99" width="1" height="38.48" transform="translate(87.14 1069.47) rotate(-37.46)" style="fill: #707071; stroke-width: 0px;"/>
        </g>
        <g id="Line_32-22" data-name="Line 32-22">
          <rect x="1606.91" y="428.27" width="1" height="57.23" transform="translate(28.76 1004.94) rotate(-35.01)" style="fill: #707071; stroke-width: 0px;"/>
        </g>
      </g>
      <g id="Group_16" data-name="Group 16" style="opacity: .2;">
        <g id="Path_2-23" data-name="Path 2-23">
          <path d="m1830.44,598.6s-70.84-52.54-36.56-90.53c34.28-37.99,74.53,15.9,91.38,44.57,16.85,28.67,44.33,97.67,31.36,99.79s-86.18-53.83-86.18-53.83Z" style="fill: #bad759; stroke-width: 0px;"/>
        </g>
        <g id="Line_26-23" data-name="Line 26-23">
          <rect x="1856.98" y="485.41" width="1" height="186.3" transform="translate(64.92 1334.66) rotate(-40.17)" style="fill: #707071; stroke-width: 0px;"/>
        </g>
        <g id="Line_27-23" data-name="Line 27-23">
          <rect x="1884.08" y="602.36" width="1" height="39.11" transform="translate(-99.93 633.67) rotate(-18.6)" style="fill: #707071; stroke-width: 0px;"/>
        </g>
        <g id="Line_28-23" data-name="Line 28-23">
          <rect x="1849.2" y="562.78" width="1" height="51.2" transform="translate(-76.64 350.05) rotate(-10.59)" style="fill: #707071; stroke-width: 0px;"/>
        </g>
        <g id="Line_29-23" data-name="Line 29-23">
          <rect x="1810.39" y="521.94" width="1" height="62.63" transform="translate(-29.68 108.62) rotate(-3.41)" style="fill: #707071; stroke-width: 0px;"/>
        </g>
        <g id="Line_30-23" data-name="Line 30-23">
          <rect x="1904.56" y="613.97" width="1" height="20.25" transform="translate(962.53 2393.38) rotate(-80.09)" style="fill: #707071; stroke-width: 0px;"/>
        </g>
        <g id="Line_31-23" data-name="Line 31-23">
          <rect x="1881.78" y="564" width="1" height="38.48" transform="translate(1247.77 2448.87) rotate(-88.43)" style="fill: #707071; stroke-width: 0px;"/>
        </g>
        <g id="Line_32-23" data-name="Line 32-23">
          <rect x="1850.81" y="512.36" width="1" height="57.24" transform="translate(1182.1 2349.9) rotate(-85.99)" style="fill: #707071; stroke-width: 0px;"/>
        </g>
      </g>
      <g id="Group_17" data-name="Group 17" style="opacity: .19;">
        <g id="Path_2-24" data-name="Path 2-24">
          <path d="m1615.56,702s81.47,33.86,57.39,79.03c-24.08,45.17-76.19,2.6-99.48-21.15s-66.66-84.08-54.58-89.28c12.08-5.2,96.68,31.4,96.68,31.4Z" style="fill: #bad759; stroke-width: 0px;"/>
        </g>
        <g id="Line_26-24" data-name="Line 26-24">
          <rect x="1593.66" y="634.81" width="1" height="186.38" transform="translate(70.68 1594.22) rotate(-54.17)" style="fill: #707071; stroke-width: 0px;"/>
        </g>
        <g id="Line_27-24" data-name="Line 27-24">
          <rect x="1556.87" y="672.9" width="1" height="39.13" transform="translate(-127.73 948.08) rotate(-32.6)" style="fill: #707071; stroke-width: 0px;"/>
        </g>
        <g id="Line_28-24" data-name="Line 28-24">
          <rect x="1598.84" y="690.98" width="1" height="51.22" transform="translate(-153.14 730.47) rotate(-24.59)" style="fill: #707071; stroke-width: 0px;"/>
        </g>
        <g id="Line_29-24" data-name="Line 29-24">
          <rect x="1645.01" y="709.97" width="1" height="62.65" transform="translate(-146.39 526.09) rotate(-17.4)" style="fill: #707071; stroke-width: 0px;"/>
        </g>
        <g id="Line_30-24" data-name="Line 30-24">
          <rect x="1526.84" y="694.81" width="20.26" height="1" transform="translate(-46.2 112.81) rotate(-4.14)" style="fill: #707071; stroke-width: 0px;"/>
        </g>
        <g id="Line_31-24" data-name="Line 31-24">
          <rect x="1549.7" y="728.96" width="38.5" height="1" transform="translate(-120.09 354.14) rotate(-12.41)" style="fill: #707071; stroke-width: 0px;"/>
        </g>
        <g id="Line_32-24" data-name="Line 32-24">
          <rect x="1580.61" y="762.48" width="57.27" height="1" transform="translate(-108.16 291.47) rotate(-10.01)" style="fill: #707071; stroke-width: 0px;"/>
        </g>
      </g>
      <g id="Group_19" data-name="Group 19" style="opacity: .26;">
        <g id="Path_2-25" data-name="Path 2-25">
          <path d="m1772.93,829.23s2.42-88.16,53.2-81.87c50.78,6.3,29.72,70.17,15.89,100.42s-54.59,92.33-63.77,82.92-5.32-101.47-5.32-101.47Z" style="fill: #aebe7c; stroke-width: 0px;"/>
        </g>
        <g id="Line_26-25" data-name="Line 26-25">
          <rect x="1711.7" y="839.39" width="186.3" height="1" transform="translate(531.17 2369.8) rotate(-75.18)" style="fill: #707071; stroke-width: 0px;"/>
        </g>
        <g id="Line_27-25" data-name="Line 27-25">
          <rect x="1765.32" y="886.45" width="39.11" height="1" transform="translate(11.44 1796.56) rotate(-53.58)" style="fill: #707071; stroke-width: 0px;"/>
        </g>
        <g id="Line_28-25" data-name="Line 28-25">
          <rect x="1766.75" y="838.65" width="51.2" height="1" transform="translate(-60.84 1533.68) rotate(-45.63)" style="fill: #707071; stroke-width: 0px;"/>
        </g>
        <g id="Line_29-25" data-name="Line 29-25">
          <rect x="1767.55" y="786.71" width="62.63" height="1" transform="translate(-99.73 1288.14) rotate(-38.42)" style="fill: #707071; stroke-width: 0px;"/>
        </g>
        <g id="Line_30-25" data-name="Line 30-25">
          <rect x="1794.34" y="894.85" width="1" height="20.25" transform="translate(-214.39 846.45) rotate(-25.09)" style="fill: #707071; stroke-width: 0px;"/>
        </g>
        <g id="Line_31-25" data-name="Line 31-25">
          <rect x="1814.74" y="843.65" width="1" height="38.48" transform="translate(-175.08 1142.72) rotate(-33.43)" style="fill: #707071; stroke-width: 0px;"/>
        </g>
        <g id="Line_32-25" data-name="Line 32-25">
          <rect x="1831.6" y="784.66" width="1" height="57.25" transform="translate(-157.26 1059.16) rotate(-30.98)" style="fill: #707071; stroke-width: 0px;"/>
        </g>
      </g>
      <g id="Group_20" data-name="Group 20" style="opacity: .17;">
        <g id="Path_2-26" data-name="Path 2-26">
          <path d="m1892.23,1097.97s44.67,76.04-1.72,97.62-62.39-43.76-66.7-76.73-2.64-107.23,10.13-104.11,58.29,83.22,58.29,83.22Z" style="fill: #bad759; stroke-width: 0px;"/>
        </g>
        <g id="Line_26-26" data-name="Line 26-26">
          <rect x="1859" y="1012.7" width="1" height="186.3" transform="translate(-243.59 598.24) rotate(-17.17)" style="fill: #707071; stroke-width: 0px;"/>
        </g>
        <g id="Line_27-26" data-name="Line 27-26">
          <rect x="1831.94" y="1054.86" width="39.12" height="1" transform="translate(658.04 2821) rotate(-85.63)" style="fill: #707071; stroke-width: 0px;"/>
        </g>
        <g id="Line_28-26" data-name="Line 28-26">
          <rect x="1844.9" y="1099.36" width="51.2" height="1" transform="translate(394.43 2690.35) rotate(-77.59)" style="fill: #707071; stroke-width: 0px;"/>
        </g>
        <g id="Line_29-26" data-name="Line 29-26">
          <rect x="1861.19" y="1146.86" width="62.63" height="1" transform="translate(175.84 2544.16) rotate(-70.36)" style="fill: #707071; stroke-width: 0px;"/>
        </g>
        <g id="Line_30-26" data-name="Line 30-26">
          <rect x="1833" y="1035.23" width="1" height="20.25" transform="translate(-40.2 2016.82) rotate(-57.09)" style="fill: #707071; stroke-width: 0px;"/>
        </g>
        <g id="Line_31-26" data-name="Line 31-26">
          <rect x="1838" y="1072.61" width="1" height="38.48" transform="translate(81.11 2309.97) rotate(-65.43)" style="fill: #707071; stroke-width: 0px;"/>
        </g>
        <g id="Line_32-26" data-name="Line 32-26">
          <rect x="1850" y="1114.23" width="1" height="57.25" transform="translate(-8.15 2272.41) rotate(-62.99)" style="fill: #707071; stroke-width: 0px;"/>
        </g>
      </g>
      <g id="Group_22" data-name="Group 22" style="opacity: .22;">
        <g id="Path_2-27" data-name="Path 2-27">
          <path d="m1115.14,1157.84s16.17-86.7,65.34-72.54,18.38,73.96,0,101.67-68.35,82.66-75.95,71.93,10.6-101.05,10.6-101.05Z" style="fill: #bad759; stroke-width: 0px;"/>
        </g>
        <g id="Line_26-27" data-name="Line 26-27">
          <rect x="1051.86" y="1172.86" width="186.3" height="1" transform="translate(-391.23 1745.89) rotate(-66.14)" style="fill: #707071; stroke-width: 0px;"/>
        </g>
        <g id="Line_28-27" data-name="Line 28-27">
          <rect x="1107.18" y="1170.17" width="51.2" height="1" transform="translate(-474.52 905.63) rotate(-36.58)" style="fill: #707071; stroke-width: 0px;"/>
        </g>
        <g id="Line_29-27" data-name="Line 29-27">
          <rect x="1116.02" y="1119.89" width="62.63" height="1" transform="translate(-402.03 706.71) rotate(-29.37)" style="fill: #707071; stroke-width: 0px;"/>
        </g>
        <g id="Line_32-27" data-name="Line 32-27">
          <rect x="1175.58" y="1122.72" width="1" height="57.25" transform="translate(-345.52 524.06) rotate(-21.99)" style="fill: #707071; stroke-width: 0px;"/>
        </g>
      </g>
    </g>
  </g>
</svg>