<?xml version="1.0" encoding="utf-8"?>
<!-- Generator: Adobe Illustrator 27.8.1, SVG Export Plug-In . SVG Version: 6.00 Build 0)  -->
<svg version="1.1" id="Layer_1" xmlns="http://www.w3.org/2000/svg" xmlns:xlink="http://www.w3.org/1999/xlink" x="0px" y="0px"
	 viewBox="0 0 1434.6 878.8" style="enable-background:new 0 0 1434.6 878.8;" xml:space="preserve">
<style type="text/css">
	.st0{fill:#D4AA02;}
	.st1{fill:#FCC902;}
	.st2{fill:#913940;}
	.st3{fill:#370860;}
	.st4{fill:#A80F88;}
	.st5{fill:#FED8A7;stroke:#A89480;stroke-width:1;stroke-miterlimit:9.9999;}
	.st6{fill:#DDB78D;stroke:#A89480;stroke-width:1;stroke-miterlimit:9.9999;}
	.st7{fill:#EFC495;}
	.st8{fill:#DDB78D;}
	.st9{fill:#EFC495;stroke:#A89480;stroke-width:1;stroke-miterlimit:9.9999;}
	.st10{fill:#9FDD33;}
	.st11{fill:#7ECC0D;}
	.st12{fill:#A0EA1F;}
	.st13{fill:#7AB711;}
	.st14{fill:#81AA30;}
	.st15{fill:#ECEDC8;}
	.st16{fill:#EFEF97;}
	.st17{fill:#C9C7B8;}
	.st18{fill:#81160B;}
	.st19{fill:#FED8A7;}
	.st20{fill:#703F04;}
	.st21{fill:#770D82;}
	.st22{fill:#3F0947;}
	.st23{fill:#6FA511;}
	.st24{fill:#B5AF91;}
	.st25{fill:#BC6B00;}
	.st26{fill:#0A5F2E;}
</style>
<ellipse class="st0" cx="982.7" cy="444.3" rx="451.8" ry="434.6"/>
<ellipse class="st1" cx="963.6" cy="434.6" rx="451.8" ry="434.6"/>
<path class="st2" d="M1104.7,370.2c0,0,47.6,39.5,48.8,89.3c1.2,49.8,0,108,0,108h17.1c0,0-3.8-70.6-7.3-122.3
	c-1.2-18.3-48.8-94.3-41.3-83.9C1134,377.9,1104.7,370.2,1104.7,370.2L1104.7,370.2z"/>
<path class="st2" d="M1156.4,425.5c0,0,28.8-40.7,42.2-55.2c13.4-14.5,31.7-26.6,31.7-26.6s-31.4,39.1-45.1,63.7
	c-16.7,29.8-26.8,29.4-31.7,52.3"/>
<ellipse class="st3" cx="1219.4" cy="360.3" rx="19.8" ry="22.4"/>
<ellipse class="st4" cx="1219.4" cy="352.5" rx="7.8" ry="8.9"/>
<ellipse class="st3" cx="1179.8" cy="379.2" rx="19.8" ry="22.4"/>
<ellipse class="st4" cx="1179.8" cy="371.3" rx="7.8" ry="8.9"/>
<ellipse class="st3" cx="1122" cy="379.2" rx="19.8" ry="22.4"/>
<ellipse class="st4" cx="1122" cy="371.3" rx="7.8" ry="8.9"/>
<ellipse class="st3" cx="1137.6" cy="415.9" rx="19.8" ry="22.4"/>
<ellipse class="st4" cx="1137.6" cy="408.1" rx="7.8" ry="8.9"/>
<ellipse class="st3" cx="1207.4" cy="393.5" rx="19.8" ry="22.4"/>
<ellipse class="st4" cx="1207.4" cy="385.6" rx="7.8" ry="8.9"/>
<ellipse class="st3" cx="1172" cy="429.2" rx="19.8" ry="22.4"/>
<ellipse class="st4" cx="1172" cy="421.4" rx="7.8" ry="8.9"/>
<ellipse class="st3" cx="1104.7" cy="405.4" rx="19.8" ry="22.4"/>
<ellipse class="st4" cx="1104.7" cy="397.6" rx="7.8" ry="8.9"/>
<ellipse class="st3" cx="1153.5" cy="458.5" rx="19.8" ry="22.4"/>
<ellipse class="st4" cx="1153.5" cy="450.7" rx="7.8" ry="8.9"/>
<path class="st5" d="M774.6,441.6c-19.9-0.4-76.5,2-145.1,21.5C689.6,734,780.3,734,957.3,734c216.3,0,307.3,0,360.9-242.7
	c6.6-29.7-57.8-23.3-84.8-23.8L774.6,441.6L774.6,441.6z"/>
<path class="st6" d="M1316,491.8c0,26.5-155.9,28.1-345.6,28.1s-343.6-21.5-343.6-48c0-26.5,153.8-48,343.6-48
	S1316,454.8,1316,491.8L1316,491.8z"/>
<path class="st7" d="M730.8,688.4c23.5-74.8-42.4-27.3-46.2-57.6c-1.9-15.8,23.8-56.1,18.1-66.7c-8.5-15.8-59.5,15.7-48.5-2.6
	c57.7-95.9-31.1-12.2-17.4-78"/>
<path class="st7" d="M677.3,498.2c10.5,5.1,23.8,3.4,27.4,17.8c4.8,18.9-29.7,11.5-24.1,25.2c12.4,30.4,43.4,1.8,50.3,17
	c5.3,11.7-26.6,52.8-20.7,64c6.1,11.5,44.8,1.9,53.5,14.2c7.7,11-23,35.7-16.5,48.4c3.9,7.6,6.5,26.3,27.8,29"/>
<path class="st7" d="M717.8,506c39.4,3.6,0,20.6,0,27.7c0,11.4,47.6,9.6,50.3,17c2.5,7.1-36.2,52.7-29.4,61.5
	c7.9,10.1,47.4-13.8,54.8,0c6.9,12.7-27.5,57.2-24.1,68.1c3.7,12.1,42.4-41.3,46.3-30.4c3.9,10.9-31.4,47.9-27.4,58.5
	c3,8,35.7,12.7,30,20.7"/>
<path class="st7" d="M768.4,517c39.4,3.6-28.4,4.5-28.4,11.6c0,11.4,62,9.6,64.6,17c2.5,7.1-43,37.9-36.2,46.6
	c7.9,10.1,53.6-3.4,61,10.4c6.9,12.7-34.6,24.6-31.3,35.5c3.7,12.1,66.6-10.9,70.5,0c3.9,10.9-56.2,50.1-52.2,60.7
	c3,8,41.6,22.3,35.9,30.4"/>
<path class="st7" d="M815.5,519.1c39.4,3.6-32.3,1.5-32.3,8.6c0,11.4,54.4-0.1,57,7.3c2.5,7.1-38.5,33.3-31.7,42
	c7.9,10.1,50.7-16.5,58.2-2.7c6.9,12.7-41,34.8-37.7,45.7c3.7,12.1,58.8-20.8,65.3-11.7c15.9,22.3-43.1,68.4-39.1,79.1
	c2.8,7.3,53.6-26.1,55-22c0.2,0.6-0.2,10.3,0,10.7c0.8,1.4-3.7,4.7-3.5,5c0.3,0.6-41.4,23.8-38.8,36c1.1,5.3,10.9,9.7,42.3,9.3"/>
<path class="st8" d="M853.1,517c7.2,4.1,19.2,5.7,18.7,9.8c-0.6,4.7-22.1,28.4-22,31.3c0.2,4.9,44-13.7,48.7-2.7
	c4.6,10.7-26.3,28.8-21.9,38.1c5.1,11,50.8-9.2,55.8,1.4c5.1,10.8-19.6,28.6-33,59.3c-4.3,9.8,58.9-8.4,62.5,0
	c3.7,8.6-51.4,43.3-47.4,54.5c3.3,9.5,59.3-20.5,64.2-8.9c2.6,6.1-10.7,28.9-13.8,34.7"/>
<path class="st7" d="M888,520c24.4,5-9.5,12.9-9.2,17.5c0.4,7.4,48.7-2.9,49.8,2.9c1.2,6.4-30,28.3-26.9,37.3
	c2.7,7.8,54.8-12.1,57.6-4.2c2.9,8.2-33.6,52.7-29.2,62c4.5,9.4,58.5-13.5,63.1-5.9c4.1,6.7-39.1,47.9-32.8,55.3
	c6.7,7.8,63.3-14,69.8-2.1c6.1,11.1-51.9,31.2-47.6,41c2.1,4.9,47.9-6,38,10.4"/>
<path class="st7" d="M929.5,521c21.6,6-15.3,2.7-15.2,6.8c0.3,5.4,36.6,5.2,37,11c0.6,9.6-20.3,9.2-19.3,18.7
	c0.9,8.5,79.2-1.5,80.5,2.8c1.7,5.3-58.7,37.6-51.2,48.3c5.8,8.3,70.1-8.8,75.9-0.4c6.8,9.8-54.3,45.6-43,55.6
	c9.5,8.5,106.3-2.3,87,13c-76.8,60.8-12.7,50.2-8.3,55.6"/>
<path class="st8" d="M987.2,520c26,1-25.2,14.1-23.7,19.6c2.6,9.6,87.3,3.5,90.7,11.3c3.4,7.6-62.8,32.4-56.1,41.4
	c7.3,9.9,78.3-5.9,84.7,7.1c7.5,15.5-67.8,31.1-58.8,46.7c8.1,14,94.3-1.9,100.9,16.5c5.7,15.9-125.8,53.8-3.5,64.9"/>
<path class="st7" d="M1040.5,520c12.2,1.5-31.1,3.3-29.7,10.8c1.6,8.8,71.4,1.8,73.1,10.3c2.3,11.3-41.7,24-36.9,38.5
	c3.6,10.7,72.7,10,76.1,19.9c5.2,15.4-48.2,17.6-43,32.4c4.2,11.9,93.3,17.3,96.1,33.7c2.4,14-142,22.5-9.4,51.4"/>
<path class="st7" d="M1081.5,520c11,5.8,31.8,8.6,31.3,17.9c-0.5,8.8-23.6,27-22.7,33.4c1.3,9.7,61.9,14.4,64.9,26.7
	c2.1,8.7-31.3,19.5-29.9,29.2c2.4,16.2,77.1,4.7,76.6,13.3c-0.2,5.1-39.4,48.7-39.6,54.2c-0.2,7.3,47.2-32.1,48.6-21.2
	c0.7,5.6-4.2,21.2-9.6,25.3"/>
<path class="st7" d="M1122.4,520c-3.8,6.7-3.8,40.7-1.6,45c3.7,7,47.1-11.9,55.4-3.6c8.1,8.1-29.5,52.1-21.2,59.2
	c7,6,60.8-29.7,66.5-23.6c6.4,6.8-30.5,61-24.7,69.3c7.4,10.6,46.8-42.5,54.6-31.6c5.2,7.2-41.3,39.3-35.8,49.3
	c4.5,8.1,11.9-8,17.6-6.5"/>
<path class="st8" d="M1148.7,518.9c32.4-4.7,1.4,19.3,4.8,26.5c5.3,11.1,52.6-2.1,57.3,6.4c6.7,12.1-38.5,22.8-29.1,36.5
	c6.6,9.6,91.6-1.3,81.6,3.5c-97.7,46.9-0.4,37.5,6.3,36.2"/>
<path class="st7" d="M1189.1,517.1c-36.7,47.2,30,4.5,35.6,8.3c13.8,9.2-13.5,35.7-9.6,45.8c2.6,6.8,60.5-4.4,63.5,0.8
	c5.2,9-19.5,29-13.9,37.3c2.2,3.3,23-15.5,17.4-2.4"/>
<path class="st7" d="M1235.8,514.4c7.9,0.2,21.7,7.5,24.1,13.1c2.9,7-25.2,27.4-22.2,31.5c3.5,4.8,49.5-16.7,56.7-11.8
	c3.7,2.6-0.9,18.7-2.3,35.8"/>
<path class="st7" d="M1272.2,510.4c-1.3,4.4-2.8,27.5-0.7,29.7c3.7,3.9,25.6-18.8,32.4-15.1c3,1.6-2.2,13.7-1.1,25.8"/>
<path class="st8" d="M1292.6,508.6c-7,21.9,12.8-8.6,16.6-4.1c3.7,4.5,2.8,19.6,2.8,19.6"/>
<path class="st9" d="M1301.6,477.9c21.5,30.7-98,36.2-331.2,33.8c-328.8-3.4-322.3-28.2-328.1-43.2c18.6-17.4,158.6-33.1,315.6-33.1
	S1295.7,469.5,1301.6,477.9L1301.6,477.9z"/>
<path class="st10" d="M1248.4,415.5c0,0,36.3-72.7,64.3-66.7c-5.7,50.6-51.4,108.4-59.6,116"/>
<path class="st11" d="M1249.8,448.6c0,0,59.1-49.7,82.6-31.4c-23.3,43.6-85.8,75.4-95.9,78.5
	C1226.3,498.9,1249.8,448.6,1249.8,448.6L1249.8,448.6z"/>
<path class="st12" d="M1223.6,478.5c0,0-8.5-113.4,22.7-145.2c20.9,32.9,25.4,88.2,16.3,94.2"/>
<path class="st13" d="M1232.9,473c0,0,64.7-39.9,85.7-18c-28.4,39.5-93.3,52-103.8,53.5"/>
<path class="st11" d="M1209.6,508.8c0,0-10-113.6,16.6-150.5c25.2,28.8,14.9,107.1,6.7,114.7"/>
<path class="st14" d="M1204.5,508.5c0,0-0.2,9.9,0.7-4.4c8-19,19.9-71.5,69.2-85.7c2.5,40.4-21.4,85.1-63.5,90.2"/>
<ellipse class="st15" cx="1243.1" cy="431" rx="4.5" ry="5.1"/>
<ellipse class="st15" cx="1244.3" cy="438.1" rx="4.5" ry="5.1"/>
<ellipse class="st15" cx="1238" cy="439.4" rx="4.5" ry="5.1"/>
<ellipse class="st16" cx="1236.8" cy="432.3" rx="4.5" ry="5.1"/>
<ellipse class="st15" cx="1278.8" cy="428.1" rx="4.5" ry="5.1"/>
<ellipse class="st15" cx="1281.9" cy="431.9" rx="4.5" ry="5.1"/>
<ellipse class="st15" cx="1276.9" cy="434.2" rx="4.5" ry="5.1"/>
<ellipse class="st15" cx="1267.5" cy="390.7" rx="4.5" ry="5.1"/>
<ellipse class="st15" cx="1261.6" cy="392.3" rx="4.5" ry="5.1"/>
<ellipse class="st16" cx="1269.6" cy="396.4" rx="4.5" ry="5.1"/>
<ellipse class="st15" cx="1263.6" cy="398" rx="4.5" ry="5.1"/>
<ellipse class="st15" cx="1266.5" cy="402.4" rx="4.5" ry="5.1"/>
<path class="st6" d="M641.8,476.6c-4.4,6.3-18.3-6.2-14.5-13c36.6-65.7,43.8-228.7,148.5-318.4c31.1-26.6,60.2-37.5,70.8-41.9
	c54.3-22.3,100-20.7,125.3-19.6c27.5,1.2,111.8,0.6,186.1,62.6c114.9,95.8,123.2,274.3,157.2,337.8c3.1,5.8-12,12.8-16.4,8.2
	c-66.2-68.5-27.3-376.5-336.4-375.3C695.9,118.2,695.1,400.6,641.8,476.6L641.8,476.6z"/>
<path class="st17" d="M1095,459.7l-41.7,52.5c24.7,2.6,91.1-1.8,91.1-1.8c6.1-24,16.6-36.6,10.4-52.6l-31-20.7
	C1117.3,432.2,1099.1,452.3,1095,459.7L1095,459.7z"/>
<path class="st18" d="M1064.7,409.1c0,0,44.6-51.7,91.8-18.6s44.2,84.5,40.2,94.2S1105.9,480.4,1064.7,409.1z"/>
<path class="st19" d="M633.9,476.8c-16.6-22,23.2-36.5,25-41.5c3.8-10.7-7.8-31.3-6.3-41.1c1.5-9.9,21.4,0.8,24-7.3
	c2.5-7.8-14.6-27.2-12.1-35c2.7-8.3,22,3.7,24.5-4.9c1.5-4.8-17.3-25.3-11.6-32.2c6.6-8,21.3,12.7,23.9,2.1
	c3-12.7-18.2-21.2-15.3-32.1c3.5-13.2,21,7.4,30.6-8.1c5.4-8.9-10.5-16.6-9.6-22.6"/>
<path class="st19" d="M706.9,254c38.2,27.1,14.4-44.2,17.4-48.5c9.9-14.6,16.8,30.2,21.9,22.1c13.4-21.6-0.2-51.9,18.6-65.1
	c6.2-4.3,14.6,23.8,20.6,18.9c6.3-5.2-2.4-37.2,3.9-42.7c3.6-3.1,19.3,20.3,27.4,18.1c9.4-2.5-11.3-30.2-4-37.4
	c8.7-8.6,21.6,30.4,29.3,23.2c9.4-8.7-20.3-12.3-12.8-29.3c3.2-7.3,8.6-0.2,12.3-4.6"/>
<path class="st19" d="M841.4,108.7c4.7,5.2,17.3,26.3,23.6,24.3c7.5-2.5,15-36.8,23.3-42.1c10.9-7,6.8,34.1,25.2,30.1
	c13.2-2.9,22.7-36.2,34.8-37.6c14.6-1.7,15.3,32.6,32.8,34.2c17,1.6,20.9-33.6,35.9-30.5c14.7,3,13.9,37,28.3,38.6
	c9.6,1.1,24.6-22,29.6-25.5"/>
<path class="st19" d="M1075,100.2c1.6,5.4,2.4,32.2,8.7,37.1c10.8,8.4,41.7-12.9,55.1-5.3c10.9,6.2-22.4,14.5-3.6,33.2
	c11.1,11,42.3-1.4,49.6,7.2c7.5,8.9-12.8,26.4-5.2,35.2c8.3,9.6,22-13.5,29-4.9c8.8,10.7-9,37.8-0.2,48.8c5,6.3,18.9-8.7,24.4-8.2"
	/>
<path class="st19" d="M1232.9,243.2c-2.9,7.5-14.7,28.7-10.5,37.1c4.6,9.3,29.3,6.7,33.9,16.4c4.8,10.1-17.9,24.3-14.2,37.7
	c3.8,14,28.2,3.4,32.2,17.2c4.1,14.2-21.6,25.5-16.6,37.8c4.4,10.9,29.7,9.3,33.5,20.1c4.1,11.5-17.8,27.9-15.2,41.5
	c2.7,14.3,27.9,5.6,33.2,22.8c2.6,8.2-5.7,14.5-5.7,14.5"/>
<polygon class="st20" points="811.7,507.5 724.4,437.6 737.3,420.8 832.6,509.5 "/>
<path class="st10" d="M724.6,449.7c0,0-59.7-48.9-51.4-79.8c43.7,12,89.3,69.9,95,79.9"/>
<path class="st11" d="M753.8,451.7c0,0-37.1-72.2-18.4-96.6c35.7,31.1,56.6,105,58.3,116.8S753.8,451.7,753.8,451.7L753.8,451.7z"/>
<path class="st12" d="M777.1,484.5c0,0-100.3-2.8-124.7-41.6c31.1-20,80-18.9,84.3-8"/>
<path class="st13" d="M773.3,473.5c0,0-27.8-77.3-6.3-98.6c31.5,36.4,43.2,112.9,43.3,124.9"/>
<path class="st11" d="M803.4,503.7c0,0-101.9-1.3-131.2-35.2c28-25.2,95.5-5,101.2,5.1"/>
<path class="st14" d="M796.8,505.9c0,0-10.5-1.5-23-4c-15.7-11.1-36.8-23.9-43.8-81.1c35.7,1.7,90.6,76.2,89.1,88.1"/>
<ellipse class="st15" cx="737.6" cy="457.3" rx="4.5" ry="5.1"/>
<ellipse class="st15" cx="744" cy="456.8" rx="4.5" ry="5.1"/>
<ellipse class="st15" cx="744.5" cy="464.1" rx="4.5" ry="5.1"/>
<ellipse class="st16" cx="738.1" cy="464.6" rx="4.5" ry="5.1"/>
<ellipse class="st15" cx="739" cy="416.8" rx="4.5" ry="5.1"/>
<ellipse class="st15" cx="742.7" cy="413.7" rx="4.5" ry="5.1"/>
<ellipse class="st15" cx="744.2" cy="419.6" rx="4.5" ry="5.1"/>
<ellipse class="st15" cx="705" cy="425.4" rx="4.5" ry="5.1"/>
<ellipse class="st15" cx="705.7" cy="432.3" rx="4.5" ry="5.1"/>
<ellipse class="st16" cx="710.2" cy="423.6" rx="4.5" ry="5.1"/>
<ellipse class="st15" cx="710.9" cy="430.6" rx="4.5" ry="5.1"/>
<ellipse class="st15" cx="715.1" cy="427.9" rx="4.5" ry="5.1"/>
<ellipse class="st21" cx="803.9" cy="417.6" rx="21.4" ry="25.8"/>
<ellipse class="st21" cx="828.6" cy="419.6" rx="21.4" ry="25.8"/>
<ellipse class="st21" cx="793.6" cy="463.2" rx="21.4" ry="25.8"/>
<ellipse class="st21" cx="788.3" cy="437.6" rx="21.4" ry="25.8"/>
<ellipse class="st21" cx="813.5" cy="464.8" rx="21.4" ry="25.8"/>
<ellipse class="st21" cx="838.1" cy="442.6" rx="21.4" ry="25.8"/>
<path class="st21" d="M826.9,473.9c6.8,11.6,23.5,32.7,7.9,34c-12.3-1.2-30.3,0.7-42.7-2.8c-6.8-11.6-4.6-29.3,5-37.4
	C806.8,459.5,820.2,462.3,826.9,473.9L826.9,473.9z"/>
<path class="st21" d="M833.9,464c6.8,11.6,6.8,37.1-5.2,35.9c-12.3-1.2-23,5.4-29.8-6.3c-6.8-11.6-4.4-27.7,5.2-35.9
	C813.8,449.5,827.1,452.3,833.9,464z"/>
<ellipse class="st21" cx="844.6" cy="467.6" rx="21.4" ry="25.8"/>
<ellipse class="st22" cx="813.4" cy="440.6" rx="21.4" ry="25.8"/>
<path class="st21" d="M847.8,476c5.3,12.7,5.1,25.7-6.8,25.2c-16.5-0.7-26.1,10.6-31.4-2.1c-5.3-12.7-1-28.2,9.6-34.6
	C829.7,458.1,842.5,463.2,847.8,476L847.8,476z"/>
<path class="st23" d="M841,501.1c0,0,8.7-78.2,25.4-91.4c16.7-13.1,24.9,83.1,22.3,91.7S841,501.1,841,501.1L841,501.1z"/>
<path class="st23" d="M837.3,508.6c0,0-27.2-72.5-18.6-93.4c8.6-20.9,58.5,57.5,60,66.5C880.1,490.5,837.3,508.6,837.3,508.6
	L837.3,508.6z"/>
<path class="st2" d="M887,364.6c0,0,32.8,55.6,18.9,102.9s-13.7,44.4-13.7,44.4l14.3,1.2c0,0,0.6-5.3,12.9-55.3
	c4.3-17.7-17.4-107.5-13.5-94.9C912.3,383.2,887,364.6,887,364.6L887,364.6z"/>
<path class="st2" d="M919,436.5c0,0,39.4-27.1,56.3-35.5c17-8.4,37.8-12.7,37.8-12.7s-41.3,24.6-61.6,42.3
	c-24.6,21.6-34.1,17.2-45.6,36.8"/>
<ellipse class="st3" cx="954.9" cy="402.1" rx="19.8" ry="22.4"/>
<ellipse class="st4" cx="957.3" cy="394.7" rx="7.8" ry="8.9"/>
<ellipse class="st3" cx="900.6" cy="379.6" rx="19.8" ry="22.4"/>
<ellipse class="st4" cx="902.9" cy="372.3" rx="7.8" ry="8.9"/>
<ellipse class="st3" cx="904.2" cy="420.2" rx="19.8" ry="22.4"/>
<ellipse class="st4" cx="906.6" cy="412.9" rx="7.8" ry="8.9"/>
<ellipse class="st3" cx="976.6" cy="426.2" rx="19.8" ry="22.4"/>
<ellipse class="st4" cx="978.9" cy="418.9" rx="7.8" ry="8.9"/>
<ellipse class="st3" cx="932.5" cy="446.1" rx="19.8" ry="22.4"/>
<ellipse class="st4" cx="934.8" cy="438.7" rx="7.8" ry="8.9"/>
<ellipse class="st3" cx="876.4" cy="397.6" rx="19.8" ry="22.4"/>
<ellipse class="st4" cx="878.8" cy="390.3" rx="7.8" ry="8.9"/>
<ellipse class="st3" cx="906.3" cy="466.4" rx="19.8" ry="22.4"/>
<ellipse class="st4" cx="908.6" cy="459.1" rx="7.8" ry="8.9"/>
<ellipse transform="matrix(0.3039 -0.9527 0.9527 0.3039 182.7608 1145.5715)" class="st21" cx="875.3" cy="447.7" rx="21.8" ry="17.8"/>
<ellipse transform="matrix(0.3039 -0.9527 0.9527 0.3039 179.1922 1170.6158)" class="st21" cx="890.6" cy="462.7" rx="21.8" ry="17.8"/>
<ellipse transform="matrix(0.3039 -0.9527 0.9527 0.3039 138.629 1137.7913)" class="st21" cx="847.9" cy="474" rx="21.8" ry="17.8"/>
<ellipse transform="matrix(0.3039 -0.9527 0.9527 0.3039 164.0857 1131.0156)" class="st21" cx="856" cy="453.2" rx="21.8" ry="17.8"/>
<ellipse transform="matrix(0.3039 -0.9527 0.9527 0.3039 135.8674 1157.974)" class="st21" cx="860.3" cy="486" rx="21.8" ry="17.8"/>
<ellipse transform="matrix(0.3039 -0.9527 0.9527 0.3039 155.9901 1181.514)" class="st21" cx="886.5" cy="484" rx="21.8" ry="17.8"/>
<path class="st21" d="M865,493.2c-0.8,11.8-12.7,14.2-22.7,14.6c-10,0.4-14.4-1.2-13.6-13.1s9.6-21.8,19.6-22.2
	C858.3,472.1,865.8,481.3,865,493.2z"/>
<ellipse transform="matrix(0.3039 -0.9527 0.9527 0.3039 149.3622 1184.7567)" class="st21" cx="885.4" cy="490.2" rx="21.8" ry="17.8"/>
<ellipse transform="matrix(0.3039 -0.9527 0.9527 0.3039 159.5582 1156.4941)" class="st22" cx="871.2" cy="469.1" rx="21.8" ry="17.8"/>
<path class="st21" d="M882,498.2c-2.3,11.8-0.8,14.9-21.9,12c-17.8-2.4-16.9-2.9-14.7-14.7c2.3-11.8,9-7.9,18.8-6.6
	C874,490.2,884.2,486.4,882,498.2L882,498.2z"/>
<path class="st24" d="M1013.3,461.3l-41.7,52.5c24.7,2.6,91.1-1.8,91.1-1.8c6.1-24,16.6-36.6,10.4-52.6l-31-20.7
	C1035.6,433.7,1017.4,453.8,1013.3,461.3L1013.3,461.3z"/>
<path class="st25" d="M986.4,415.9c-2.1-2.9-1.8-7.2,0.7-9.6c12.2-11.7,49-41.3,87.6-14.3c47.1,33.1,44.2,84.5,40.2,94.2
	c-1.5,3.6-14.4,5.5-34.1-8c-11.6-8-33.9,5.4-43.2-12.2c-14.4-27.3-34.5-12.8-38.5-32.5C997.9,427.2,991.4,422.7,986.4,415.9
	L986.4,415.9z"/>
<polygon class="st20" points="705.3,497.1 620.3,423.7 633.7,407.4 726.1,500 "/>
<path class="st10" d="M620.1,435.8c0,0-58.1-51.3-48.8-81.9c43.3,13.7,87,73.5,92.4,83.8"/>
<path class="st11" d="M649.2,439c0,0-34.8-73.6-15.3-97.3c34.7,32.5,53.3,107.2,54.5,119.1C689.6,472.8,649.2,439,649.2,439z"/>
<path class="st12" d="M671.4,472.8c0,0-100.2-6.9-123.3-46.7c31.7-18.7,80.6-15.6,84.5-4.5"/>
<path class="st13" d="M668,461.6c0,0-25.3-78.4-3.2-98.8c30.3,37.7,39.5,114.6,39.3,126.6"/>
<path class="st11" d="M697.1,493c0,0-101.8-5.4-130-40.6c28.8-24,95.6-1.1,101,9.2"/>
<path class="st14" d="M690.4,494.9c0,0-10.5-1.9-22.8-5c-15.4-11.8-36-25.4-41.2-82.8c35.6,3.1,88.1,79.9,86.2,91.7"/>
<ellipse class="st15" cx="632.8" cy="444" rx="4.5" ry="5.1"/>
<ellipse class="st15" cx="639.2" cy="443.7" rx="4.5" ry="5.1"/>
<ellipse class="st15" cx="639.5" cy="451" rx="4.5" ry="5.1"/>
<ellipse class="st16" cx="633.1" cy="451.3" rx="4.5" ry="5.1"/>
<ellipse class="st15" cx="635.5" cy="403.5" rx="4.5" ry="5.1"/>
<ellipse class="st15" cx="639.3" cy="400.6" rx="4.5" ry="5.1"/>
<ellipse class="st15" cx="640.6" cy="406.5" rx="4.5" ry="5.1"/>
<ellipse class="st15" cx="601.2" cy="410.7" rx="4.5" ry="5.1"/>
<ellipse class="st15" cx="601.8" cy="417.6" rx="4.5" ry="5.1"/>
<ellipse class="st16" cx="606.5" cy="409.2" rx="4.5" ry="5.1"/>
<ellipse class="st15" cx="607" cy="416.1" rx="4.5" ry="5.1"/>
<ellipse class="st15" cx="611.3" cy="413.6" rx="4.5" ry="5.1"/>
<ellipse class="st3" cx="926.3" cy="490.2" rx="19.8" ry="22.4"/>
<ellipse class="st4" cx="928.7" cy="482.9" rx="7.8" ry="8.9"/>
<ellipse class="st3" cx="954.7" cy="489.4" rx="19.8" ry="22.4"/>
<ellipse class="st4" cx="957" cy="482.1" rx="7.8" ry="8.9"/>
<ellipse class="st3" cx="978.7" cy="489.4" rx="19.8" ry="22.4"/>
<ellipse class="st4" cx="981.1" cy="482.1" rx="7.8" ry="8.9"/>
<ellipse class="st3" cx="958.2" cy="460.1" rx="19.8" ry="22.4"/>
<ellipse class="st4" cx="960.6" cy="452.7" rx="7.8" ry="8.9"/>
<path d="M699.8,659.6c0-0.5,1.8-1,5.3-1.4s6.4-0.7,8.7-0.7c9,0,13.7,1.5,14.1,4.4l10.5,66.3l9.9-66.3c0.5-2.9,5.5-4.4,15.1-4.4
	c2.3,0,5.3,0.2,8.9,0.6c3.6,0.4,5.4,0.8,5.4,1.4l-21.6,99.7c-0.3,1.6-2.7,2.7-7.2,3.2c-6.9,0.9-13.2,1.1-18.8,0.5
	c-5.6-0.5-8.6-1.5-8.9-2.9L699.8,659.6L699.8,659.6z"/>
<path d="M793.1,737.2v-53.6h-8.6c-1.4,0-2.4-2.2-2.9-6.5c-0.2-2.1-0.4-4.3-0.4-6.5c0-2.2,0.1-4.4,0.4-6.5c0.6-4.3,1.5-6.5,2.9-6.5
	h40.9c1.4,0,2.3,2.2,2.8,6.5c0.3,2.1,0.5,4.3,0.5,6.5c0,2.2-0.2,4.4-0.5,6.5c-0.5,4.3-1.4,6.5-2.8,6.5h-8.2v53.6h8.5
	c1.4,0,2.3,2.2,2.9,6.5c0.3,2.1,0.5,4.3,0.5,6.5c0,2.2-0.2,4.4-0.5,6.5c-0.6,4.3-1.5,6.5-2.9,6.5h-41.1c-1.4,0-2.3-2.2-2.8-6.5
	c-0.3-2.1-0.5-4.3-0.5-6.5c0-2.2,0.2-4.4,0.5-6.5c0.5-4.3,1.4-6.5,2.8-6.5H793.1z"/>
<path d="M836.1,754.2v-93.7c0-2.1,4.1-3.2,12.4-3.2s12.4,1,12.4,3.2v73.8h18.8c1.5,0,2.5,2.4,3,7.1c0.2,2.3,0.4,4.7,0.4,7.1
	s-0.1,4.9-0.4,7.4c-0.7,4.8-1.7,7.2-3.2,7.2H842c-1.8,0-3.2-0.9-4.3-2.7C836.7,758.6,836.2,756.5,836.1,754.2L836.1,754.2z"/>
<path d="M890.4,756.2v-90.4c0-2.5,0.5-4.5,1.5-5.9s2.3-2.2,4-2.2h20.3c12.9,0,22.7,4,29.4,12c6.7,8,10,20.7,10,38
	c0,37-12.7,55.4-38.2,55.4h-20.8C892.4,763.1,890.4,760.8,890.4,756.2L890.4,756.2z M913.7,686.3v45c0,2.1,0.1,3.4,0.4,4
	c0.2,0.5,1,0.8,2.2,0.8c4.5,0,7.9-2.1,10.2-6.2c2.3-4.1,3.5-11,3.5-20.6c0-9.6-1.2-15.8-3.6-18.7c-2.4-2.9-6.2-4.4-11.4-4.4H913.7
	L913.7,686.3z"/>
<path d="M1073.6,763.3c-7.2,0-10.8-1-10.8-3l-2.6-60.4l-14.9,61.2c-0.3,1.2-3.1,1.8-8.3,1.8c-5.2,0-7.9-0.5-8-1.7l-15.3-61.9
	l-1.7,60.1c-0.1,1.5-1.6,2.5-4.6,3.1c-3,0.5-5.5,0.8-7.5,0.8c-2,0-3.9-0.2-5.8-0.5c-3.9-0.7-5.8-2-5.7-3.8l2.8-97.9
	c0-2.4,4.9-3.6,14.9-3.6c2.9,0,6.5,0.3,10.7,0.8s6.6,1.6,7.1,3.2l13.6,47.4l11.9-47.6c0.7-2.6,6.3-3.9,16.8-3.9
	c3,0,6.6,0.3,10.8,0.8c4.2,0.5,6.3,1.5,6.3,2.9l3.5,98.8c0,1.1-1.6,1.9-4.8,2.4C1078.8,763,1076,763.3,1073.6,763.3L1073.6,763.3z"
	/>
<path d="M1156,763.4c-7.1,0-10.9-1.4-11.4-4.2l-4-19.4h-19.4l-3.5,18.7c-0.5,3.1-4.4,4.7-11.7,4.7c-3.9,0-6.8-0.3-8.7-0.8
	s-2.8-1-2.8-1.3l21.6-102c0-0.8,5.6-1.2,16.7-1.2c11.1,0,16.7,0.4,16.7,1.2l21.1,102.1c0,0.7-1.9,1.3-5.6,1.7
	C1161.2,763.2,1158.2,763.4,1156,763.4L1156,763.4z M1124.3,720.6h12.8l-5.5-31.2h-0.7L1124.3,720.6L1124.3,720.6z"/>
<path d="M1178.6,756.2v-90.4c0-2.5,0.5-4.5,1.5-5.9s2.3-2.2,4-2.2h20.3c12.9,0,22.7,4,29.4,12c6.7,8,10.1,20.7,10.1,38
	c0,37-12.7,55.4-38.2,55.4h-20.8C1180.7,763.1,1178.6,760.8,1178.6,756.2L1178.6,756.2z M1202,686.3v45c0,2.1,0.1,3.4,0.4,4
	c0.2,0.5,1,0.8,2.2,0.8c4.5,0,7.9-2.1,10.2-6.2c2.3-4.1,3.5-11,3.5-20.6c0-9.6-1.2-15.8-3.6-18.7c-2.4-2.9-6.2-4.4-11.4-4.4H1202z"
	/>
<path class="st26" d="M694.7,659.3c0-0.5,1.8-1,5.3-1.4s6.4-0.7,8.7-0.7c9,0,13.7,1.5,14.1,4.4l10.5,66.3l9.9-66.3
	c0.5-2.9,5.5-4.4,15.1-4.4c2.3,0,5.3,0.2,8.9,0.6c3.6,0.4,5.4,0.8,5.4,1.4L751,758.9c-0.3,1.6-2.7,2.7-7.2,3.2
	c-6.9,0.9-13.2,1.1-18.8,0.5c-5.6-0.5-8.6-1.5-8.9-2.9L694.7,659.3L694.7,659.3z"/>
<path class="st26" d="M788,736.9v-53.6h-8.6c-1.4,0-2.4-2.2-2.9-6.5c-0.2-2.1-0.4-4.3-0.4-6.5c0-2.2,0.1-4.4,0.4-6.5
	c0.6-4.3,1.5-6.5,2.9-6.5h40.9c1.4,0,2.3,2.2,2.8,6.5c0.3,2.1,0.5,4.3,0.5,6.5c0,2.2-0.2,4.4-0.5,6.5c-0.5,4.3-1.4,6.5-2.8,6.5h-8.2
	v53.6h8.5c1.4,0,2.3,2.2,2.9,6.5c0.3,2.1,0.5,4.3,0.5,6.5s-0.2,4.4-0.5,6.5c-0.6,4.3-1.5,6.5-2.9,6.5h-41.1c-1.4,0-2.3-2.2-2.8-6.5
	c-0.3-2.1-0.5-4.3-0.5-6.5s0.2-4.4,0.5-6.5c0.5-4.3,1.4-6.5,2.8-6.5H788z"/>
<path class="st26" d="M831,753.9v-93.7c0-2.1,4.1-3.2,12.4-3.2s12.4,1,12.4,3.2V734h18.8c1.5,0,2.5,2.4,3,7.1
	c0.2,2.3,0.4,4.7,0.4,7.1s-0.1,4.9-0.4,7.4c-0.7,4.8-1.7,7.2-3.2,7.2h-37.5c-1.8,0-3.2-0.9-4.3-2.7C831.5,758.3,831,756.2,831,753.9
	L831,753.9z"/>
<path class="st26" d="M885.2,755.9v-90.4c0-2.5,0.5-4.5,1.5-5.9s2.3-2.2,4-2.2H911c12.9,0,22.7,4,29.4,12c6.7,8,10,20.7,10,38
	c0,37-12.7,55.4-38.2,55.4h-20.8C887.3,762.8,885.2,760.5,885.2,755.9L885.2,755.9z M908.6,686v45c0,2.1,0.1,3.4,0.4,4
	c0.2,0.5,1,0.8,2.2,0.8c4.5,0,7.9-2.1,10.2-6.2c2.3-4.1,3.5-11,3.5-20.6c0-9.6-1.2-15.8-3.6-18.7c-2.4-2.9-6.2-4.4-11.4-4.4H908.6
	L908.6,686z"/>
<path class="st26" d="M1068.4,763c-7.2,0-10.8-1-10.8-3l-2.6-60.4l-14.9,61.2c-0.3,1.2-3.1,1.8-8.3,1.8s-7.9-0.5-8-1.7l-15.3-61.9
	l-1.7,60.1c-0.1,1.5-1.6,2.5-4.6,3.1c-3,0.5-5.5,0.8-7.5,0.8s-3.9-0.2-5.8-0.5c-3.9-0.7-5.8-2-5.7-3.8l2.8-97.9
	c0-2.4,5-3.6,14.9-3.6c2.9,0,6.5,0.3,10.7,0.8c4.2,0.5,6.6,1.6,7.1,3.2l13.6,47.4l11.9-47.6c0.7-2.6,6.3-3.9,16.8-3.9
	c3,0,6.6,0.3,10.8,0.8s6.3,1.5,6.3,2.9l3.5,98.8c0,1.1-1.6,1.9-4.7,2.4C1073.6,762.7,1070.8,763,1068.4,763L1068.4,763z"/>
<path class="st26" d="M1150.9,763.1c-7.1,0-10.9-1.4-11.4-4.2l-4-19.4h-19.4l-3.5,18.7c-0.5,3.1-4.4,4.7-11.7,4.7
	c-3.9,0-6.8-0.3-8.6-0.8c-1.9-0.5-2.8-1-2.8-1.3l21.6-102c0-0.8,5.6-1.2,16.7-1.2s16.7,0.4,16.7,1.2l21.1,102.1
	c0,0.7-1.9,1.3-5.6,1.7C1156,762.9,1153.1,763.1,1150.9,763.1L1150.9,763.1z M1119.1,720.3h12.8l-5.5-31.2h-0.7L1119.1,720.3
	L1119.1,720.3z"/>
<path class="st26" d="M1173.4,755.9v-90.4c0-2.5,0.5-4.5,1.5-5.9s2.3-2.2,4-2.2h20.3c12.9,0,22.7,4,29.4,12c6.7,8,10,20.7,10,38
	c0,37-12.7,55.4-38.2,55.4h-20.8C1175.5,762.8,1173.4,760.5,1173.4,755.9L1173.4,755.9z M1196.8,686v45c0,2.1,0.1,3.4,0.4,4
	c0.2,0.5,1,0.8,2.2,0.8c4.5,0,7.9-2.1,10.2-6.2c2.3-4.1,3.5-11,3.5-20.6c0-9.6-1.2-15.8-3.6-18.7c-2.4-2.9-6.2-4.4-11.4-4.4H1196.8z
	"/>
</svg>
