<?xml version="1.0" encoding="UTF-8"?>
<svg id="Layer_1" data-name="Layer 1" xmlns="http://www.w3.org/2000/svg" viewBox="0 0 922.83 878.83">
  <g>
    <ellipse cx="471" cy="444.27" rx="451.82" ry="434.56" style="fill: #d4aa02; stroke-width: 0px;"/>
    <ellipse cx="451.82" cy="434.56" rx="451.82" ry="434.56" style="fill: #fcc902; stroke-width: 0px;"/>
    <g>
      <g>
        <path d="m592.95,370.25s47.59,39.5,48.81,89.34c1.22,49.84,0,107.98,0,107.98h17.08s-3.79-70.58-7.32-122.35c-1.25-18.29-48.79-94.27-41.29-83.92,12.07,16.65-17.29,8.95-17.29,8.95Z" style="fill: #913940; stroke-width: 0px;"/>
        <path d="m644.68,425.49s28.81-40.75,42.23-55.24c13.42-14.49,31.73-26.61,31.73-26.61,0,0-31.44,39.12-45.15,63.67-16.66,29.82-26.85,29.37-31.73,52.29" style="fill: #913940; stroke-width: 0px;"/>
        <ellipse cx="707.63" cy="360.34" rx="19.78" ry="22.44" style="fill: #370860; stroke-width: 0px;"/>
        <ellipse cx="707.63" cy="352.52" rx="7.83" ry="8.88" style="fill: #a80f88; stroke-width: 0px;"/>
        <ellipse cx="668.06" cy="379.17" rx="19.78" ry="22.44" style="fill: #370860; stroke-width: 0px;"/>
        <ellipse cx="668.06" cy="371.35" rx="7.83" ry="8.88" style="fill: #a80f88; stroke-width: 0px;"/>
        <ellipse cx="610.23" cy="379.17" rx="19.78" ry="22.44" style="fill: #370860; stroke-width: 0px;"/>
        <ellipse cx="610.23" cy="371.35" rx="7.83" ry="8.88" style="fill: #a80f88; stroke-width: 0px;"/>
        <ellipse cx="625.89" cy="415.91" rx="19.78" ry="22.44" style="fill: #370860; stroke-width: 0px;"/>
        <ellipse cx="625.89" cy="408.1" rx="7.83" ry="8.88" style="fill: #a80f88; stroke-width: 0px;"/>
        <ellipse cx="695.68" cy="393.47" rx="19.78" ry="22.44" style="fill: #370860; stroke-width: 0px;"/>
        <ellipse cx="695.68" cy="385.65" rx="7.83" ry="8.88" style="fill: #a80f88; stroke-width: 0px;"/>
        <ellipse cx="660.23" cy="429.23" rx="19.78" ry="22.44" style="fill: #370860; stroke-width: 0px;"/>
        <ellipse cx="660.23" cy="421.41" rx="7.83" ry="8.88" style="fill: #a80f88; stroke-width: 0px;"/>
        <ellipse cx="592.95" cy="405.45" rx="19.78" ry="22.44" style="fill: #370860; stroke-width: 0px;"/>
        <ellipse cx="592.95" cy="397.63" rx="7.83" ry="8.88" style="fill: #a80f88; stroke-width: 0px;"/>
        <ellipse cx="641.76" cy="458.52" rx="19.78" ry="22.44" style="fill: #370860; stroke-width: 0px;"/>
        <ellipse cx="641.76" cy="450.71" rx="7.83" ry="8.88" style="fill: #a80f88; stroke-width: 0px;"/>
      </g>
      <g>
        <path d="m262.86,441.65c-19.86-.35-76.53,2.03-145.14,21.5,60.17,270.89,150.8,270.89,327.8,270.87,216.33-.02,307.28.02,360.93-242.69,6.58-29.75-57.77-23.32-84.81-23.8l-458.79-25.88Z" style="fill: #fed8a7; stroke-width: 0px;"/>
        <path d="m441.19,734.52c-84.86,0-152.08-.55-203.64-33.92-27.14-17.57-49.56-43.94-68.55-80.61-19.97-38.56-36.9-89.83-51.76-156.73l-.1-.46.45-.13c77.67-22.04,138.59-21.64,145.28-21.51h.02s458.79,25.88,458.79,25.88c4.08.07,9.13-.02,14.49-.11,24.44-.43,57.92-1.01,68.16,11.52,2.87,3.51,3.75,7.88,2.62,12.99-13.38,60.52-29.29,106.46-48.65,140.43-18.83,33.05-42.06,56.68-71.03,72.24-56.57,30.4-134.18,30.41-241.59,30.42h-4.49ZM118.32,463.5c14.82,66.59,31.69,117.63,51.57,156.03,18.91,36.51,41.22,62.76,68.2,80.23,52.18,33.78,120.67,33.79,207.44,33.76h.15c107.27-.01,184.77-.02,241.12-30.3,28.79-15.47,51.89-38.97,70.63-71.85,19.31-33.88,35.19-79.72,48.54-140.15,1.06-4.8.25-8.88-2.42-12.14-9.94-12.16-43.13-11.58-67.37-11.16-5.36.09-10.43.18-14.54.11l-458.8-25.88c-6.72-.12-67.25-.51-144.53,21.35Z" style="fill: #a89480; stroke-width: 0px;"/>
      </g>
      <g>
        <path d="m804.27,491.83c0,26.52-155.86,28.15-345.62,28.15s-343.6-21.5-343.6-48.02,153.83-48.02,343.6-48.02,345.62,30.86,345.62,67.88Z" style="fill: #ddb78d; stroke-width: 0px;"/>
        <path d="m458.65,520.48c-91.8,0-178.11-5-243.03-14.07-37.75-5.28-101.07-16.76-101.07-34.45s63.32-29.17,101.07-34.45c64.92-9.07,151.23-14.07,243.03-14.07s178.35,7.13,244.07,20.07c65.81,12.96,102.05,30.12,102.05,48.31,0,12.59-32.45,20.38-102.12,24.52-64.21,3.81-155.74,4.13-244,4.13Zm0-96.04c-91.76,0-178.02,4.99-242.89,14.06-63.68,8.9-100.21,21.1-100.21,33.46s36.52,24.56,100.21,33.46c64.87,9.07,151.13,14.06,242.89,14.06,161.77,0,345.12,0,345.12-27.65,0-17.41-36.9-34.67-101.24-47.33-65.66-12.93-152.27-20.05-243.87-20.05Z" style="fill: #a89480; stroke-width: 0px;"/>
      </g>
      <path d="m219.11,688.42c23.5-74.79-42.43-27.31-46.17-57.64-1.94-15.76,23.77-56.13,18.1-66.68-8.49-15.77-59.52,15.69-48.54-2.57,57.68-95.92-31.1-12.24-17.45-78.02" style="fill: #efc495; stroke-width: 0px;"/>
      <path d="m165.59,498.2c10.52,5.15,23.77,3.43,27.42,17.77,4.81,18.94-29.72,11.55-24.15,25.18,12.4,30.36,43.39,1.84,50.26,17.03,5.3,11.71-26.62,52.84-20.69,64.04,6.07,11.47,44.82,1.87,53.51,14.2,7.75,11-23,35.68-16.5,48.39,3.88,7.58,6.46,26.27,27.78,29" style="fill: #efc495; stroke-width: 0px;"/>
      <path d="m206.06,506.04c39.39,3.59-.02,20.64,0,27.71.03,11.38,47.63,9.6,50.26,17.03,2.53,7.14-36.19,52.74-29.37,61.46,7.87,10.08,47.38-13.81,54.83,0,6.87,12.74-27.46,57.23-24.15,68.13,3.67,12.1,42.45-41.31,46.35-30.36,3.88,10.9-31.44,47.87-27.42,58.5,3.03,8.01,35.71,12.72,30.03,20.73" style="fill: #efc495; stroke-width: 0px;"/>
      <path d="m256.65,516.96c39.39,3.59-28.42,4.54-28.4,11.6.03,11.38,61.99,9.6,64.62,17.03,2.53,7.14-43.04,37.93-36.22,46.65,7.87,10.08,53.58-3.44,61.03,10.37,6.87,12.74-34.64,24.65-31.33,35.54,3.67,12.1,66.6-10.95,70.5,0,3.88,10.9-56.25,50.09-52.22,60.72,3.03,8.01,41.58,22.35,35.9,30.36" style="fill: #efc495; stroke-width: 0px;"/>
      <path d="m303.73,519.07c39.39,3.59-32.27,1.5-32.26,8.56.03,11.38,54.42-.09,57.05,7.34,2.53,7.14-38.53,33.32-31.72,42.04,7.87,10.08,50.74-16.48,58.19-2.67,6.87,12.74-41.01,34.79-37.7,45.69,3.67,12.1,58.81-20.85,65.35-11.66,15.88,22.34-43.13,68.44-39.1,79.07,2.76,7.29,53.6-26.08,54.98-22.04.2.59-.21,10.33,0,10.68.85,1.4-3.73,4.66-3.53,5.02.33.59-41.4,23.8-38.82,36.03,1.12,5.32,10.88,9.73,42.35,9.34" style="fill: #efc495; stroke-width: 0px;"/>
      <path d="m341.37,516.96c7.19,4.11,19.19,5.66,18.66,9.84-.6,4.73-22.11,28.41-21.97,31.34.23,4.9,43.98-13.66,48.68-2.73,4.63,10.74-26.27,28.83-21.95,38.15,5.1,11.01,50.84-9.16,55.85,1.36,5.13,10.78-19.61,28.61-33.03,59.27-4.28,9.77,58.89-8.4,62.46,0,3.67,8.65-51.37,43.35-47.43,54.5,3.35,9.48,59.3-20.5,64.25-8.86,2.6,6.12-10.74,28.93-13.81,34.67" style="fill: #ddb78d; stroke-width: 0px;"/>
      <path d="m376.29,519.98c24.4,5.05-9.48,12.93-9.23,17.51.41,7.42,48.67-2.94,49.83,2.93,1.25,6.37-30.05,28.33-26.94,37.27,2.72,7.83,54.8-12.14,57.58-4.19,2.87,8.2-33.65,52.67-29.16,61.97,4.55,9.44,58.47-13.47,63.11-5.86,4.1,6.71-39.11,47.9-32.85,55.27,6.66,7.83,63.27-14.02,69.76-2.09,6.05,11.13-51.92,31.22-47.61,41.03,2.14,4.89,47.86-5.98,38.03,10.39" style="fill: #efc495; stroke-width: 0px;"/>
      <path d="m417.8,521.03c21.58,5.96-15.35,2.74-15.16,6.81.26,5.39,36.65,5.25,36.99,10.96.57,9.6-20.31,9.23-19.33,18.68.89,8.5,79.18-1.48,80.53,2.84,1.67,5.33-58.7,37.59-51.18,48.32,5.79,8.26,70.06-8.81,75.88-.41,6.77,9.78-54.26,45.61-43.01,55.63,9.52,8.47,106.31-2.28,87.03,12.99-76.77,60.8-12.71,50.24-8.27,55.57" style="fill: #efc495; stroke-width: 0px;"/>
      <path d="m475.5,519.98c25.98,1.05-25.18,14.15-23.72,19.61,2.57,9.58,87.29,3.47,90.75,11.26,3.38,7.62-62.79,32.45-56.14,41.45,7.31,9.91,78.35-5.94,84.7,7.14,7.52,15.47-67.84,31.1-58.81,46.67,8.12,14.01,94.34-1.91,100.91,16.47,5.67,15.87-125.83,53.81-3.52,64.91" style="fill: #ddb78d; stroke-width: 0px;"/>
      <path d="m528.73,519.98c12.18,1.51-31.1,3.3-29.73,10.78,1.6,8.76,71.38,1.79,73.09,10.27,2.29,11.31-41.69,24.05-36.89,38.5,3.55,10.69,72.74,9.97,76.07,19.89,5.19,15.45-48.18,17.62-42.99,32.4,4.18,11.89,93.3,17.3,96.15,33.69,2.44,14.03-141.97,22.46-9.4,51.38" style="fill: #efc495; stroke-width: 0px;"/>
      <path d="m569.78,519.98c10.99,5.81,31.83,8.61,31.29,17.86-.52,8.85-23.56,26.96-22.71,33.44,1.29,9.71,61.92,14.36,64.93,26.66,2.14,8.74-31.35,19.47-29.92,29.16,2.39,16.16,77.06,4.73,76.65,13.32-.24,5.08-39.38,48.75-39.56,54.23-.24,7.28,47.22-32.07,48.6-21.24.72,5.62-4.22,21.2-9.56,25.31" style="fill: #efc495; stroke-width: 0px;"/>
      <path d="m610.63,519.98c-3.78,6.66-3.83,40.72-1.58,44.97,3.73,7.04,47.1-11.91,55.41-3.62,8.1,8.09-29.46,52.14-21.17,59.2,6.99,5.95,60.83-29.71,66.52-23.61,6.39,6.85-30.49,60.99-24.7,69.26,7.43,10.6,46.79-42.47,54.57-31.63,5.18,7.21-41.33,39.31-35.85,49.26,4.49,8.14,11.86-8.04,17.6-6.46" style="fill: #efc495; stroke-width: 0px;"/>
      <path d="m636.97,518.94c32.44-4.72,1.4,19.3,4.83,26.5,5.27,11.07,52.61-2.13,57.32,6.41,6.7,12.13-38.49,22.84-29.09,36.48,6.61,9.58,91.58-1.32,81.6,3.48-97.66,46.95-.4,37.51,6.32,36.22" style="fill: #ddb78d; stroke-width: 0px;"/>
      <path d="m677.35,517.13c-36.66,47.22,29.96,4.54,35.57,8.29,13.76,9.17-13.47,35.69-9.63,45.8,2.58,6.78,60.5-4.44,63.52.84,5.15,8.99-19.46,29.01-13.89,37.29,2.22,3.3,23.01-15.47,17.45-2.39" style="fill: #efc495; stroke-width: 0px;"/>
      <path d="m724.03,514.37c7.88.24,21.71,7.47,24.08,13.14,2.93,7.02-25.25,27.42-22.22,31.52,3.52,4.76,49.52-16.7,56.67-11.77,3.74,2.58-.86,18.71-2.33,35.78" style="fill: #efc495; stroke-width: 0px;"/>
      <path d="m760.52,510.38c-1.27,4.38-2.85,27.46-.71,29.73,3.67,3.9,25.56-18.82,32.38-15.13,3.03,1.64-2.17,13.73-1.08,25.78" style="fill: #efc495; stroke-width: 0px;"/>
      <path d="m780.86,508.62c-7.05,21.95,12.84-8.63,16.58-4.07,3.72,4.54,2.82,19.61,2.82,19.61" style="fill: #ddb78d; stroke-width: 0px;"/>
      <g>
        <path d="m789.86,477.92c21.53,30.73-98.05,36.19-331.21,33.77-328.78-3.41-322.27-28.18-328.08-43.24,18.56-17.36,158.61-33.13,315.58-33.13s337.84,34.23,343.7,42.6Z" style="fill: #efc495; stroke-width: 0px;"/>
        <path d="m547.04,512.71c-27.53,0-57.03-.19-88.4-.52-314.79-3.27-322.63-26.31-327.83-41.56-.23-.68-.46-1.35-.71-2.01l-.12-.31.25-.23c19.28-18.03,163.95-33.26,315.92-33.26s337.77,33.77,344.11,42.81h0c2.76,3.94,3.29,7.58,1.59,10.82-9.98,18.94-99.54,24.26-244.81,24.26Zm-415.88-44.12c.21.56.4,1.14.6,1.72,5.1,14.98,12.81,37.62,326.89,40.88,196.54,2.04,320.68-1.13,332.31-23.21,1.54-2.92,1.04-6.12-1.52-9.78h0c-5.31-7.58-182.24-42.39-343.29-42.39s-296.97,16.9-314.99,32.77Z" style="fill: #a89480; stroke-width: 0px;"/>
      </g>
      <g>
        <path d="m736.63,415.48s36.26-72.7,64.27-66.72c-5.68,50.62-51.4,108.41-59.59,115.96" style="fill: #9fdd33; stroke-width: 0px;"/>
        <path d="m738.07,448.59s59.15-49.75,82.61-31.39c-23.3,43.65-85.76,75.42-95.94,78.55-10.18,3.13,13.33-47.16,13.33-47.16Z" style="fill: #7ecc0d; stroke-width: 0px;"/>
        <path d="m711.9,478.49s-8.55-113.44,22.72-145.16c20.91,32.88,25.39,88.18,16.26,94.2" style="fill: #a0ea1f; stroke-width: 0px;"/>
        <path d="m721.15,473.04s64.7-39.88,85.67-17.98c-28.45,39.53-93.32,51.97-103.79,53.46" style="fill: #7ab711; stroke-width: 0px;"/>
        <path d="m697.88,508.84s-9.98-113.65,16.57-150.49c25.16,28.79,14.88,107.14,6.69,114.69" style="fill: #7ecc0d; stroke-width: 0px;"/>
        <path d="m692.74,508.52s-.22,9.88.66-4.44c8.01-18.96,19.87-71.51,69.2-85.72,2.47,40.44-21.38,85.06-63.48,90.16" style="fill: #81aa30; stroke-width: 0px;"/>
        <ellipse cx="731.37" cy="430.98" rx="4.53" ry="5.14" style="fill: #ecedc8; stroke-width: 0px;"/>
        <ellipse cx="732.53" cy="438.12" rx="4.53" ry="5.14" style="fill: #ecedc8; stroke-width: 0px;"/>
        <ellipse cx="726.22" cy="439.44" rx="4.53" ry="5.14" style="fill: #ecedc8; stroke-width: 0px;"/>
        <ellipse cx="725.07" cy="432.29" rx="4.53" ry="5.14" style="fill: #efef97; stroke-width: 0px;"/>
        <ellipse cx="767.03" cy="428.06" rx="4.53" ry="5.14" style="fill: #ecedc8; stroke-width: 0px;"/>
        <ellipse cx="770.19" cy="431.92" rx="4.53" ry="5.14" style="fill: #ecedc8; stroke-width: 0px;"/>
        <ellipse cx="765.16" cy="434.22" rx="4.53" ry="5.14" style="fill: #ecedc8; stroke-width: 0px;"/>
        <ellipse cx="755.75" cy="390.67" rx="4.53" ry="5.14" style="fill: #ecedc8; stroke-width: 0px;"/>
        <ellipse cx="749.84" cy="392.29" rx="4.53" ry="5.14" style="fill: #ecedc8; stroke-width: 0px;"/>
        <ellipse cx="757.9" cy="396.4" rx="4.53" ry="5.14" style="fill: #efef97; stroke-width: 0px;"/>
        <ellipse cx="751.9" cy="397.96" rx="4.53" ry="5.14" style="fill: #ecedc8; stroke-width: 0px;"/>
        <ellipse cx="754.73" cy="402.36" rx="4.53" ry="5.14" style="fill: #ecedc8; stroke-width: 0px;"/>
      </g>
      <g>
        <path d="m130.07,476.63c-4.42,6.3-18.33-6.18-14.54-12.99,36.64-65.73,43.77-228.74,148.48-318.39,31.12-26.64,60.25-37.53,70.84-41.87,54.31-22.26,100.03-20.71,125.29-19.57,27.52,1.24,111.79.63,186.11,62.62,114.88,95.82,123.24,274.29,157.24,337.81,3.11,5.82-11.96,12.84-16.39,8.25-66.22-68.55-27.33-376.49-336.38-375.29-266.51,1.03-267.34,283.39-320.65,359.43Z" style="fill: #ddb78d; stroke-width: 0px;"/>
        <path d="m791.42,494.48c-1.9,0-3.58-.5-4.69-1.64-18.78-19.44-29.19-58.21-41.25-103.11-30.85-114.85-73.1-272.04-292.97-272.04-.61,0-1.18,0-1.79,0-88.36.34-155.18,31.13-204.27,94.12-41.94,53.82-63.55,122.26-80.91,177.25-11.66,36.94-21.73,68.84-35.06,87.84l-.41-.29.41.29c-1.76,2.51-5.04,2.6-8.78.26-5-3.14-8.94-9.56-6.6-13.77,11.84-21.25,20.54-52.48,30.6-88.65,20.98-75.38,47.09-169.19,117.99-229.88,29.32-25.1,57.04-36.31,68.88-41.1.76-.31,1.46-.59,2.1-.85,55.52-22.76,102.78-20.63,125.5-19.61,1.61.07,3.42.14,5.42.21,33.19,1.22,110.9,4.06,180.99,62.52,80.04,66.76,108.78,174.81,129.76,253.71,9.27,34.86,17.28,64.97,27.6,84.25,1.2,2.25.07,4.93-3.02,7.18-2.71,1.98-6.39,3.29-9.49,3.29ZM452.53,116.7c97.49,0,168.76,30.44,217.82,93.01,42.29,53.93,61.03,123.7,76.09,179.76,12.03,44.76,22.41,83.42,41.01,102.67,2.47,2.56,8.83,1.18,12.87-1.77,1.27-.93,4.09-3.36,2.73-5.9-10.37-19.38-18.4-49.54-27.68-84.46-20.95-78.77-49.64-186.64-129.44-253.2-69.83-58.24-147.3-61.08-180.39-62.29-2-.07-3.81-.14-5.42-.21-22.64-1.02-69.76-3.14-125.07,19.54-.63.26-1.34.54-2.1.85-11.79,4.77-39.41,15.94-68.6,40.94-70.66,60.49-96.73,154.14-117.67,229.39-10.08,36.22-18.79,67.51-30.69,88.86-2.07,3.72,1.63,9.54,6.26,12.44,1.21.76,5.34,3.01,7.43.02h0c13.24-18.88,23.29-50.71,34.93-87.57,17.39-55.07,39.03-123.6,81.08-177.56,49.29-63.25,116.37-94.17,205.05-94.51.61,0,1.21,0,1.82,0Z" style="fill: #a89480; stroke-width: 0px;"/>
      </g>
      <g>
        <g style="isolation: isolate;">
          <path d="m583.22,459.74l-41.67,52.47c24.68,2.64,91.08-1.82,91.08-1.82,6.07-24.05,16.61-36.61,10.38-52.6l-30.99-20.68c-6.42-4.88-24.7,15.2-28.8,22.63Z" style="fill: #c9c7b8; stroke-width: 0px;"/>
        </g>
        <path d="m552.92,409.11s44.64-51.71,91.78-18.62c47.14,33.09,44.23,84.46,40.23,94.16-4,9.7-90.72-4.23-132.01-75.54Z" style="fill: #81160b; stroke-width: 0px;"/>
      </g>
      <path d="m122.11,476.84c-16.64-22.01,23.2-36.47,24.98-41.52,3.77-10.68-7.82-31.27-6.35-41.06,1.48-9.88,21.36.81,23.98-7.33,2.51-7.78-14.61-27.23-12.09-35.05,2.69-8.33,21.98,3.68,24.55-4.93,1.45-4.84-17.29-25.33-11.6-32.23,6.6-8.01,21.35,12.75,23.9,2.11,3.04-12.67-18.21-21.21-15.34-32.06,3.49-13.16,21,7.44,30.56-8.15,5.44-8.87-10.47-16.63-9.56-22.62" style="fill: #fed8a7; stroke-width: 0px;"/>
      <path d="m195.15,254.02c38.17,27.06,14.45-44.22,17.36-48.53,9.88-14.6,16.82,30.25,21.86,22.13,13.41-21.59-.21-51.95,18.62-65.14,6.21-4.35,14.64,23.76,20.58,18.86,6.32-5.22-2.43-37.18,3.94-42.7,3.58-3.1,19.31,20.26,27.42,18.13,9.41-2.48-11.35-30.2-4-37.43,8.75-8.6,21.58,30.38,29.29,23.2,9.36-8.72-20.32-12.28-12.84-29.27,3.23-7.34,8.6-.21,12.3-4.62" style="fill: #fed8a7; stroke-width: 0px;"/>
      <path d="m329.68,108.65c4.66,5.25,17.31,26.34,23.62,24.28,7.54-2.46,14.99-36.78,23.26-42.12,10.86-7.01,6.77,34.1,25.18,30.08,13.16-2.87,22.67-36.22,34.85-37.62,14.56-1.67,15.3,32.58,32.81,34.25,17.04,1.63,20.91-33.59,35.94-30.54,14.66,2.97,13.87,36.98,28.31,38.64,9.63,1.11,24.6-21.98,29.64-25.47" style="fill: #fed8a7; stroke-width: 0px;"/>
      <path d="m563.28,100.15c1.57,5.36,2.44,32.21,8.71,37.11,10.78,8.43,41.72-12.92,55.11-5.32,10.86,6.16-22.38,14.47-3.59,33.16,11.09,11.03,42.35-1.4,49.56,7.17,7.49,8.9-12.8,26.39-5.15,35.18,8.35,9.59,21.99-13.46,29.03-4.94,8.83,10.69-9.03,37.76-.21,48.83,5,6.28,18.88-8.68,24.44-8.18" style="fill: #fed8a7; stroke-width: 0px;"/>
      <path d="m721.18,243.17c-2.9,7.53-14.7,28.7-10.54,37.09,4.6,9.28,29.33,6.67,33.91,16.37,4.77,10.1-17.86,24.31-14.25,37.67,3.78,13.97,28.22,3.43,32.24,17.21,4.14,14.19-21.65,25.52-16.65,37.84,4.44,10.94,29.66,9.33,33.47,20.09,4.07,11.5-17.78,27.88-15.19,41.55,2.7,14.26,27.92,5.58,33.24,22.77,2.55,8.23-5.74,14.5-5.74,14.5" style="fill: #fed8a7; stroke-width: 0px;"/>
      <g>
        <polygon points="299.94 507.5 212.69 437.59 225.53 420.79 320.89 509.51 299.94 507.5" style="fill: #703f04; stroke-width: 0px;"/>
        <path d="m212.87,449.72s-59.71-48.88-51.39-79.81c43.72,11.97,89.33,69.88,95.05,79.94" style="fill: #9fdd33; stroke-width: 0px;"/>
        <path d="m242.04,451.73s-37.08-72.16-18.42-96.6c35.68,31.07,56.65,104.99,58.27,116.82,1.62,11.83-39.85-20.22-39.85-20.22Z" style="fill: #7ecc0d; stroke-width: 0px;"/>
        <path d="m265.36,484.53s-100.33-2.83-124.68-41.57c31.1-19.96,80.05-18.93,84.32-7.98" style="fill: #a0ea1f; stroke-width: 0px;"/>
        <path d="m261.6,473.5s-27.83-77.34-6.34-98.57c31.5,36.42,43.16,112.94,43.31,124.91" style="fill: #7ab711; stroke-width: 0px;"/>
        <path d="m291.62,503.69s-101.88-1.27-131.25-35.25c27.99-25.2,95.51-5,101.22,5.06" style="fill: #7ecc0d; stroke-width: 0px;"/>
        <path d="m285.02,505.87s-10.51-1.47-22.96-4.04c-15.73-11.12-36.78-23.9-43.81-81.09,35.7,1.66,90.56,76.22,89.09,88.08" style="fill: #81aa30; stroke-width: 0px;"/>
        <ellipse cx="225.87" cy="457.35" rx="4.53" ry="5.14" style="fill: #ecedc8; stroke-width: 0px;"/>
        <ellipse cx="232.26" cy="456.83" rx="4.53" ry="5.14" style="fill: #ecedc8; stroke-width: 0px;"/>
        <ellipse cx="232.71" cy="464.08" rx="4.53" ry="5.14" style="fill: #ecedc8; stroke-width: 0px;"/>
        <ellipse cx="226.32" cy="464.6" rx="4.53" ry="5.14" style="fill: #efef97; stroke-width: 0px;"/>
        <ellipse cx="227.23" cy="416.82" rx="4.53" ry="5.14" style="fill: #ecedc8; stroke-width: 0px;"/>
        <ellipse cx="230.96" cy="413.68" rx="4.53" ry="5.14" style="fill: #ecedc8; stroke-width: 0px;"/>
        <ellipse cx="232.43" cy="419.61" rx="4.53" ry="5.14" style="fill: #ecedc8; stroke-width: 0px;"/>
        <ellipse cx="193.24" cy="425.43" rx="4.53" ry="5.14" style="fill: #ecedc8; stroke-width: 0px;"/>
        <ellipse cx="194.01" cy="432.27" rx="4.53" ry="5.14" style="fill: #ecedc8; stroke-width: 0px;"/>
        <ellipse cx="198.49" cy="423.64" rx="4.53" ry="5.14" style="fill: #efef97; stroke-width: 0px;"/>
        <ellipse cx="199.2" cy="430.57" rx="4.53" ry="5.14" style="fill: #ecedc8; stroke-width: 0px;"/>
        <ellipse cx="203.36" cy="427.86" rx="4.53" ry="5.14" style="fill: #ecedc8; stroke-width: 0px;"/>
      </g>
      <g>
        <ellipse cx="292.12" cy="417.57" rx="21.36" ry="25.76" style="fill: #770d82; stroke-width: 0px;"/>
        <ellipse cx="316.84" cy="419.61" rx="21.36" ry="25.76" style="fill: #770d82; stroke-width: 0px;"/>
        <ellipse cx="281.85" cy="463.23" rx="21.36" ry="25.76" style="fill: #770d82; stroke-width: 0px;"/>
        <ellipse cx="276.55" cy="437.63" rx="21.36" ry="25.76" style="fill: #770d82; stroke-width: 0px;"/>
        <ellipse cx="301.79" cy="464.76" rx="21.36" ry="25.76" style="fill: #770d82; stroke-width: 0px;"/>
        <ellipse cx="326.39" cy="442.65" rx="21.36" ry="25.76" style="fill: #770d82; stroke-width: 0px;"/>
        <path d="m315.21,473.92c6.78,11.64,23.47,32.74,7.95,33.98-12.28-1.24-30.35.66-42.73-2.81-6.78-11.64-4.63-29.26,5.02-37.44,9.65-8.18,22.97-5.37,29.76,6.27Z" style="fill: #770d82; stroke-width: 0px;"/>
        <path d="m322.16,463.99c6.78,11.64,6.8,37.09-5.2,35.88-12.28-1.24-22.97,5.37-29.76-6.27-6.78-11.64-4.45-27.71,5.2-35.88,9.65-8.18,22.97-5.37,29.76,6.27Z" style="fill: #770d82; stroke-width: 0px;"/>
        <ellipse cx="332.82" cy="467.57" rx="21.36" ry="25.76" style="fill: #770d82; stroke-width: 0px;"/>
        <ellipse cx="301.67" cy="440.61" rx="21.36" ry="25.76" style="fill: #3f0947; stroke-width: 0px;"/>
        <path d="m336.07,475.97c5.27,12.72,5.14,25.71-6.8,25.18-16.51-.73-26.14,10.57-31.41-2.15s-.99-28.2,9.56-34.56c10.55-6.36,23.38-1.2,28.65,11.53Z" style="fill: #770d82; stroke-width: 0px;"/>
      </g>
      <path d="m329.27,501.15s8.71-78.23,25.4-91.37,24.93,83.13,22.28,91.72c-2.65,8.59-47.68-.35-47.68-.35Z" style="fill: #6fa511; stroke-width: 0px;"/>
      <path d="m325.53,508.56s-27.22-72.55-18.65-93.44c8.58-20.89,58.46,57.55,59.99,66.48,1.53,8.93-41.34,26.96-41.34,26.96Z" style="fill: #6fa511; stroke-width: 0px;"/>
      <g>
        <path d="m375.29,364.56s32.81,55.59,18.93,102.89c-13.88,47.3-13.67,44.39-13.67,44.39l14.29,1.2s.59-5.28,12.89-55.3c4.34-17.67-17.42-107.52-13.49-94.88,6.32,20.33-18.94,1.7-18.94,1.7Z" style="fill: #913940; stroke-width: 0px;"/>
        <path d="m407.25,436.54s39.36-27.11,56.34-35.52c16.98-8.4,37.84-12.7,37.84-12.7,0,0-41.34,24.56-61.63,42.3-24.64,21.56-34.08,17.18-45.58,36.82" style="fill: #913940; stroke-width: 0px;"/>
        <ellipse cx="443.19" cy="402.09" rx="19.78" ry="22.44" style="fill: #370860; stroke-width: 0px;"/>
        <ellipse cx="445.54" cy="394.75" rx="7.83" ry="8.88" style="fill: #a80f88; stroke-width: 0px;"/>
        <ellipse cx="388.85" cy="379.65" rx="19.78" ry="22.44" style="fill: #370860; stroke-width: 0px;"/>
        <ellipse cx="391.2" cy="372.3" rx="7.83" ry="8.88" style="fill: #a80f88; stroke-width: 0px;"/>
        <ellipse cx="392.49" cy="420.25" rx="19.78" ry="22.44" style="fill: #370860; stroke-width: 0px;"/>
        <ellipse cx="394.84" cy="412.91" rx="7.83" ry="8.88" style="fill: #a80f88; stroke-width: 0px;"/>
        <ellipse cx="464.82" cy="426.24" rx="19.78" ry="22.44" style="fill: #370860; stroke-width: 0px;"/>
        <ellipse cx="467.18" cy="418.9" rx="7.83" ry="8.88" style="fill: #a80f88; stroke-width: 0px;"/>
        <ellipse cx="420.73" cy="446.09" rx="19.78" ry="22.44" style="fill: #370860; stroke-width: 0px;"/>
        <ellipse cx="423.09" cy="438.74" rx="7.83" ry="8.88" style="fill: #a80f88; stroke-width: 0px;"/>
        <ellipse cx="364.68" cy="397.63" rx="19.78" ry="22.44" style="fill: #370860; stroke-width: 0px;"/>
        <ellipse cx="367.04" cy="390.29" rx="7.83" ry="8.88" style="fill: #a80f88; stroke-width: 0px;"/>
        <ellipse cx="394.54" cy="466.45" rx="19.78" ry="22.44" style="fill: #370860; stroke-width: 0px;"/>
        <ellipse cx="396.9" cy="459.1" rx="7.83" ry="8.88" style="fill: #a80f88; stroke-width: 0px;"/>
      </g>
      <g>
        <ellipse cx="363.59" cy="447.75" rx="21.81" ry="17.85" transform="translate(-173.48 658.07) rotate(-72.31)" style="fill: #770d82; stroke-width: 0px;"/>
        <ellipse cx="378.93" cy="462.72" rx="21.81" ry="17.85" transform="translate(-177.06 683.1) rotate(-72.31)" style="fill: #770d82; stroke-width: 0px;"/>
        <ellipse cx="336.19" cy="474.06" rx="21.81" ry="17.85" transform="translate(-217.62 650.28) rotate(-72.31)" style="fill: #770d82; stroke-width: 0px;"/>
        <ellipse cx="344.28" cy="453.26" rx="21.81" ry="17.85" transform="translate(-192.17 643.51) rotate(-72.31)" style="fill: #770d82; stroke-width: 0px;"/>
        <ellipse cx="348.62" cy="486.05" rx="21.81" ry="17.85" transform="translate(-220.39 670.46) rotate(-72.31)" style="fill: #770d82; stroke-width: 0px;"/>
        <ellipse cx="374.79" cy="484.05" rx="21.81" ry="17.85" transform="translate(-200.27 694.01) rotate(-72.31)" style="fill: #770d82; stroke-width: 0px;"/>
        <path d="m353.3,493.19c-.8,11.85-12.7,14.21-22.75,14.65s-14.43-1.22-13.63-13.07,9.59-21.81,19.64-22.25c10.05-.44,17.54,8.82,16.74,20.67Z" style="fill: #770d82; stroke-width: 0px;"/>
        <ellipse cx="373.7" cy="490.2" rx="21.81" ry="17.85" transform="translate(-206.89 697.25) rotate(-72.31)" style="fill: #770d82; stroke-width: 0px;"/>
        <ellipse cx="359.45" cy="469.09" rx="21.81" ry="17.85" transform="translate(-196.69 668.98) rotate(-72.31)" style="fill: #3f0947; stroke-width: 0px;"/>
        <path d="m370.22,498.2c-2.28,11.78-.78,14.9-21.9,12.04-17.77-2.41-16.94-2.93-14.66-14.71,2.28-11.78,8.98-7.95,18.8-6.62,9.82,1.33,20.05-2.49,17.76,9.3Z" style="fill: #770d82; stroke-width: 0px;"/>
      </g>
      <g style="isolation: isolate;">
        <path d="m501.53,461.26l-41.67,52.47c24.68,2.64,91.08-1.82,91.08-1.82,6.07-24.05,16.61-36.61,10.38-52.6l-30.99-20.68c-6.42-4.88-24.7,15.2-28.8,22.63Z" style="fill: #b5af91; stroke-width: 0px;"/>
      </g>
      <path d="m474.69,415.93c-2.12-2.91-1.81-7.19.73-9.64,12.17-11.71,49.04-41.34,87.58-14.28,47.14,33.09,44.23,84.46,40.23,94.16-1.49,3.61-14.36,5.55-34.1-8.05-11.62-8-33.94,5.41-43.21-12.17-14.38-27.29-34.47-12.78-38.49-32.54-1.27-6.22-7.78-10.68-12.73-17.48Z" style="fill: #bc6b00; stroke-width: 0px;"/>
      <g>
        <polygon points="193.52 497.14 108.56 423.71 121.92 407.44 214.4 500.01 193.52 497.14" style="fill: #703f04; stroke-width: 0px;"/>
        <path d="m108.35,435.83s-58.11-51.3-48.81-81.86c43.31,13.75,87.05,73.49,92.44,83.78" style="fill: #9fdd33; stroke-width: 0px;"/>
        <path d="m137.43,439.04s-34.76-73.64-15.33-97.29c34.67,32.51,53.27,107.24,54.51,119.13,1.25,11.89-39.18-21.84-39.18-21.84Z" style="fill: #7ecc0d; stroke-width: 0px;"/>
        <path d="m159.69,472.77s-100.17-6.94-123.28-46.66c31.72-18.67,80.6-15.64,84.52-4.52" style="fill: #a0ea1f; stroke-width: 0px;"/>
        <path d="m156.29,461.6s-25.35-78.43-3.19-98.77c30.32,37.69,39.54,114.64,39.3,126.6" style="fill: #7ab711; stroke-width: 0px;"/>
        <path d="m185.33,493s-101.78-5.44-130.04-40.61c28.78-24.04,95.61-1.08,100.99,9.21" style="fill: #7ecc0d; stroke-width: 0px;"/>
        <path d="m178.66,494.9s-10.46-1.9-22.82-4.97c-15.37-11.76-36-25.39-41.2-82.83,35.63,3.12,88.07,79.88,86.23,91.67" style="fill: #81aa30; stroke-width: 0px;"/>
        <ellipse cx="121.09" cy="443.99" rx="4.53" ry="5.14" style="fill: #ecedc8; stroke-width: 0px;"/>
        <ellipse cx="127.5" cy="443.74" rx="4.53" ry="5.14" style="fill: #ecedc8; stroke-width: 0px;"/>
        <ellipse cx="127.72" cy="451" rx="4.53" ry="5.14" style="fill: #ecedc8; stroke-width: 0px;"/>
        <ellipse cx="121.32" cy="451.26" rx="4.53" ry="5.14" style="fill: #efef97; stroke-width: 0px;"/>
        <ellipse cx="123.75" cy="403.54" rx="4.53" ry="5.14" style="fill: #ecedc8; stroke-width: 0px;"/>
        <ellipse cx="127.57" cy="400.56" rx="4.53" ry="5.14" style="fill: #ecedc8; stroke-width: 0px;"/>
        <ellipse cx="128.85" cy="406.54" rx="4.53" ry="5.14" style="fill: #ecedc8; stroke-width: 0px;"/>
        <ellipse cx="89.5" cy="410.75" rx="4.53" ry="5.14" style="fill: #ecedc8; stroke-width: 0px;"/>
        <ellipse cx="90.05" cy="417.62" rx="4.53" ry="5.14" style="fill: #ecedc8; stroke-width: 0px;"/>
        <ellipse cx="94.81" cy="409.18" rx="4.53" ry="5.14" style="fill: #efef97; stroke-width: 0px;"/>
        <ellipse cx="95.29" cy="416.13" rx="4.53" ry="5.14" style="fill: #ecedc8; stroke-width: 0px;"/>
        <ellipse cx="99.55" cy="413.6" rx="4.53" ry="5.14" style="fill: #ecedc8; stroke-width: 0px;"/>
      </g>
      <ellipse cx="414.6" cy="490.2" rx="19.78" ry="22.44" style="fill: #370860; stroke-width: 0px;"/>
      <ellipse cx="416.96" cy="482.86" rx="7.83" ry="8.88" style="fill: #a80f88; stroke-width: 0px;"/>
      <ellipse cx="442.95" cy="489.43" rx="19.78" ry="22.44" style="fill: #370860; stroke-width: 0px;"/>
      <ellipse cx="445.31" cy="482.09" rx="7.83" ry="8.88" style="fill: #a80f88; stroke-width: 0px;"/>
      <ellipse cx="466.96" cy="489.43" rx="19.78" ry="22.44" style="fill: #370860; stroke-width: 0px;"/>
      <ellipse cx="469.32" cy="482.09" rx="7.83" ry="8.88" style="fill: #a80f88; stroke-width: 0px;"/>
      <ellipse cx="446.48" cy="460.08" rx="19.78" ry="22.44" style="fill: #370860; stroke-width: 0px;"/>
      <ellipse cx="448.84" cy="452.73" rx="7.83" ry="8.88" style="fill: #a80f88; stroke-width: 0px;"/>
    </g>
  </g>
  <g>
    <path d="m188.09,659.63c0-.5,1.77-.98,5.3-1.43,3.53-.45,6.44-.68,8.71-.68,9.02,0,13.72,1.46,14.13,4.37l10.48,66.28,9.87-66.28c.49-2.91,5.52-4.37,15.11-4.37,2.35,0,5.32.2,8.89.6,3.57.4,5.36.85,5.36,1.36l-21.56,99.72c-.33,1.61-2.72,2.66-7.19,3.16-6.9.9-13.18,1.08-18.82.53-5.65-.55-8.63-1.53-8.95-2.94l-21.32-100.33Z" style="stroke-width: 0px;"/>
    <path d="m281.41,737.21v-53.63h-8.65c-1.38,0-2.36-2.16-2.92-6.48-.24-2.11-.37-4.27-.37-6.48s.12-4.37.37-6.48c.57-4.32,1.54-6.48,2.92-6.48h40.93c1.38,0,2.31,2.16,2.8,6.48.32,2.11.49,4.27.49,6.48s-.16,4.37-.49,6.48c-.49,4.32-1.42,6.48-2.8,6.48h-8.16v53.63h8.53c1.38,0,2.35,2.16,2.92,6.48.32,2.11.49,4.27.49,6.48s-.16,4.37-.49,6.48c-.57,4.32-1.54,6.48-2.92,6.48h-41.06c-1.38,0-2.31-2.16-2.8-6.48-.33-2.11-.49-4.27-.49-6.48s.16-4.37.49-6.48c.49-4.32,1.42-6.48,2.8-6.48h8.41Z" style="stroke-width: 0px;"/>
    <path d="m324.41,754.23v-93.7c0-2.11,4.12-3.16,12.37-3.16s12.37,1.05,12.37,3.16v73.81h18.76c1.46,0,2.48,2.36,3.05,7.08.24,2.31.37,4.67.37,7.08s-.12,4.87-.37,7.38c-.65,4.82-1.71,7.23-3.17,7.23h-37.52c-1.79,0-3.21-.9-4.26-2.71-1.06-1.81-1.58-3.86-1.58-6.18Z" style="stroke-width: 0px;"/>
    <path d="m378.62,756.19v-90.38c0-2.51.51-4.49,1.52-5.95,1.01-1.46,2.33-2.18,3.96-2.18h20.35c12.91,0,22.72,4.02,29.42,12.05,6.7,8.04,10.05,20.69,10.05,37.96,0,36.96-12.75,55.44-38.25,55.44h-20.83c-4.14,0-6.21-2.31-6.21-6.93Zm23.39-69.9v45.04c0,2.11.12,3.44.37,3.99.24.55.97.83,2.19.83,4.47,0,7.86-2.06,10.17-6.18,2.31-4.12,3.47-10.97,3.47-20.56s-1.2-15.84-3.59-18.75c-2.4-2.91-6.19-4.37-11.39-4.37h-1.22Z" style="stroke-width: 0px;"/>
    <path d="m561.85,763.27c-7.23,0-10.84-1-10.84-3.01l-2.56-60.41-14.86,61.16c-.33,1.21-3.09,1.81-8.28,1.81s-7.88-.55-8.04-1.66l-15.35-61.91-1.71,60.11c-.08,1.51-1.63,2.54-4.63,3.09-3.01.55-5.5.83-7.49.83s-3.92-.15-5.79-.45c-3.9-.7-5.81-1.96-5.73-3.77l2.8-97.92c0-2.41,4.95-3.62,14.86-3.62,2.92,0,6.5.28,10.72.83,4.22.55,6.58,1.63,7.07,3.24l13.64,47.45,11.94-47.6c.73-2.61,6.33-3.92,16.81-3.92,3,0,6.6.28,10.78.83,4.18.55,6.27,1.53,6.27,2.94l3.53,98.82c0,1.11-1.58,1.91-4.75,2.41-3.17.5-5.97.75-8.41.75Z" style="stroke-width: 0px;"/>
    <path d="m644.32,763.42c-7.07,0-10.88-1.41-11.45-4.22l-4.02-19.43h-19.37l-3.53,18.68c-.49,3.11-4.39,4.67-11.7,4.67-3.9,0-6.78-.28-8.65-.83-1.87-.55-2.8-.98-2.8-1.28l21.56-101.98c0-.8,5.56-1.21,16.69-1.21s16.69.4,16.69,1.21l21.08,102.13c0,.7-1.87,1.26-5.6,1.66-3.74.4-6.7.6-8.89.6Zm-31.8-42.78h12.79l-5.48-31.18h-.73l-6.58,31.18Z" style="stroke-width: 0px;"/>
    <path d="m666.86,756.19v-90.38c0-2.51.51-4.49,1.52-5.95,1.01-1.46,2.33-2.18,3.96-2.18h20.34c12.91,0,22.72,4.02,29.42,12.05,6.7,8.04,10.05,20.69,10.05,37.96,0,36.96-12.75,55.44-38.25,55.44h-20.83c-4.14,0-6.21-2.31-6.21-6.93Zm23.39-69.9v45.04c0,2.11.12,3.44.37,3.99.24.55.97.83,2.19.83,4.47,0,7.86-2.06,10.17-6.18,2.31-4.12,3.47-10.97,3.47-20.56s-1.2-15.84-3.59-18.75c-2.4-2.91-6.19-4.37-11.39-4.37h-1.22Z" style="stroke-width: 0px;"/>
  </g>
  <g>
    <path d="m182.92,659.33c0-.5,1.77-.98,5.3-1.43,3.53-.45,6.44-.68,8.71-.68,9.02,0,13.72,1.46,14.13,4.37l10.48,66.28,9.87-66.28c.49-2.91,5.52-4.37,15.11-4.37,2.35,0,5.32.2,8.89.6,3.57.4,5.36.85,5.36,1.36l-21.56,99.72c-.33,1.61-2.72,2.66-7.19,3.16-6.9.9-13.18,1.08-18.82.53-5.65-.55-8.63-1.53-8.95-2.94l-21.32-100.33Z" style="fill: #05a84e; stroke-width: 0px;"/>
    <path d="m276.24,736.9v-53.63h-8.65c-1.38,0-2.36-2.16-2.92-6.48-.24-2.11-.37-4.27-.37-6.48s.12-4.37.37-6.48c.57-4.32,1.54-6.48,2.92-6.48h40.93c1.38,0,2.31,2.16,2.8,6.48.32,2.11.49,4.27.49,6.48s-.16,4.37-.49,6.48c-.49,4.32-1.42,6.48-2.8,6.48h-8.16v53.63h8.53c1.38,0,2.35,2.16,2.92,6.48.32,2.11.49,4.27.49,6.48s-.16,4.37-.49,6.48c-.57,4.32-1.54,6.48-2.92,6.48h-41.06c-1.38,0-2.31-2.16-2.8-6.48-.33-2.11-.49-4.27-.49-6.48s.16-4.37.49-6.48c.49-4.32,1.42-6.48,2.8-6.48h8.41Z" style="fill: #05a84e; stroke-width: 0px;"/>
    <path d="m319.25,753.93v-93.7c0-2.11,4.12-3.16,12.37-3.16s12.37,1.05,12.37,3.16v73.81h18.76c1.46,0,2.48,2.36,3.05,7.08.24,2.31.37,4.67.37,7.08s-.12,4.87-.37,7.38c-.65,4.82-1.71,7.23-3.17,7.23h-37.52c-1.79,0-3.21-.9-4.26-2.71-1.06-1.81-1.58-3.86-1.58-6.18Z" style="fill: #05a84e; stroke-width: 0px;"/>
    <path d="m373.46,755.89v-90.38c0-2.51.51-4.49,1.52-5.95,1.01-1.46,2.33-2.18,3.96-2.18h20.35c12.91,0,22.72,4.02,29.42,12.05,6.7,8.04,10.05,20.69,10.05,37.96,0,36.96-12.75,55.44-38.25,55.44h-20.83c-4.14,0-6.21-2.31-6.21-6.93Zm23.39-69.9v45.04c0,2.11.12,3.44.37,3.99.24.55.97.83,2.19.83,4.47,0,7.86-2.06,10.17-6.18,2.31-4.12,3.47-10.97,3.47-20.56s-1.2-15.84-3.59-18.75c-2.4-2.91-6.19-4.37-11.39-4.37h-1.22Z" style="fill: #05a84e; stroke-width: 0px;"/>
    <path d="m556.68,762.97c-7.23,0-10.84-1-10.84-3.01l-2.56-60.41-14.86,61.16c-.33,1.21-3.09,1.81-8.28,1.81s-7.88-.55-8.04-1.66l-15.35-61.91-1.71,60.11c-.08,1.51-1.63,2.54-4.63,3.09-3.01.55-5.5.83-7.49.83s-3.92-.15-5.79-.45c-3.9-.7-5.81-1.96-5.73-3.77l2.8-97.92c0-2.41,4.95-3.62,14.86-3.62,2.92,0,6.5.28,10.72.83,4.22.55,6.58,1.63,7.07,3.24l13.64,47.45,11.94-47.6c.73-2.61,6.33-3.92,16.81-3.92,3,0,6.6.28,10.78.83,4.18.55,6.27,1.53,6.27,2.94l3.53,98.82c0,1.11-1.58,1.91-4.75,2.41-3.17.5-5.97.75-8.41.75Z" style="fill: #05a84e; stroke-width: 0px;"/>
    <path d="m639.16,763.12c-7.07,0-10.88-1.41-11.45-4.22l-4.02-19.43h-19.37l-3.53,18.68c-.49,3.11-4.39,4.67-11.7,4.67-3.9,0-6.78-.28-8.65-.83-1.87-.55-2.8-.98-2.8-1.28l21.56-101.98c0-.8,5.56-1.21,16.69-1.21s16.69.4,16.69,1.21l21.08,102.13c0,.7-1.87,1.26-5.6,1.66-3.74.4-6.7.6-8.89.6Zm-31.8-42.78h12.79l-5.48-31.18h-.73l-6.58,31.18Z" style="fill: #05a84e; stroke-width: 0px;"/>
    <path d="m661.7,755.89v-90.38c0-2.51.51-4.49,1.52-5.95,1.01-1.46,2.33-2.18,3.96-2.18h20.34c12.91,0,22.72,4.02,29.42,12.05,6.7,8.04,10.05,20.69,10.05,37.96,0,36.96-12.75,55.44-38.25,55.44h-20.83c-4.14,0-6.21-2.31-6.21-6.93Zm23.39-69.9v45.04c0,2.11.12,3.44.37,3.99.24.55.97.83,2.19.83,4.47,0,7.86-2.06,10.17-6.18,2.31-4.12,3.47-10.97,3.47-20.56s-1.2-15.84-3.59-18.75c-2.4-2.91-6.19-4.37-11.39-4.37h-1.22Z" style="fill: #05a84e; stroke-width: 0px;"/>
  </g>
</svg>